<?xml version="1.0" encoding="utf-8"?>
<!-- Generator: Adobe Illustrator 16.0.0, SVG Export Plug-In . SVG Version: 6.00 Build 0)  -->
<!DOCTYPE svg PUBLIC "-//W3C//DTD SVG 1.1//EN" "http://www.w3.org/Graphics/SVG/1.1/DTD/svg11.dtd">
<svg version="1.1" id="Layer_1" xmlns="http://www.w3.org/2000/svg" xmlns:xlink="http://www.w3.org/1999/xlink" x="0px" y="0px"
	 width="358px" height="192px" viewBox="126.5 315.5 358 192" enable-background="new 126.5 315.5 358 192" xml:space="preserve">
<g>
	<path fill="#13342B" d="M214.812,358.209c-1.377,9.256-6.885,15.683-14.076,19.813c8.262,4.667,12.164,12.852,10.557,24.021
		c-2.831,20.119-24.021,27.54-43.452,18.359c-1.912-0.918-2.831-4.284-2.983-7.649c-8.032,9.563-16.677,10.633-21.343,5.354
		c-3.213-3.672-2.295-11.857,0.535-11.169c12.929,3.289,19.737-13.617,23.486-61.812c-13.847,5.508-18.59,17.978-12.546,24.939
		c2.142,2.601-0.382,4.208-5.431,3.137c-10.098-1.989-17.672-11.016-10.787-22.338c6.809-11.093,20.808-21.191,43.299-21.191
		C204.255,329.751,217.336,341.685,214.812,358.209z M169.371,406.404c13.234,7.19,25.627,5.508,27.463-6.35
		c1.377-8.721-6.426-16.065-18.896-16.065C175.721,393.246,172.661,400.666,169.371,406.404z M182.299,342.374
		c0,11.781-0.841,22.032-2.295,31.059h0.459c0.765,0,1.454,0.076,2.142,0.076c9.486-0.076,17.06-6.732,18.207-15.453
		C202.037,349.488,197.829,342.144,182.299,342.374z"/>
	<path fill="#13342B" d="M251.991,384.448c-1.53,7.727-0.383,13.693,2.677,13.693c4.437,0,6.656-6.808,8.415-14.382
		c1.224-5.125,11.705-0.535,9.945,5.202c-3.978,13.158-10.251,22.185-21.649,22.185c-8.95,0-16.983-7.879-14-25.627
		c0.995-6.043,2.983-10.71,5.125-14.152c-2.524,0.382-5.125,0.459-7.803,0.382c-1.683,10.557-4.59,24.174-8.186,33.66
		c-1.836,4.896-13.388,2.372-11.628-2.601c3.672-10.404,6.502-24.021,7.497-34.808c-10.557-8.109-2.677-22.108,8.186-22.108
		c4.59,0,5.814,1.454,5.814,11.016c0,0.765-0.076,1.836-0.153,3.06c5.508,0.612,12.24-0.306,16.524-2.677
		c4.208-2.295,9.792,9.486,7.191,11.628C256.581,371.979,253.139,378.94,251.991,384.448z"/>
	<path fill="#13342B" d="M305.235,411.453c-4.667,0-9.104-2.143-12.01-6.962c-3.672,4.208-8.415,6.962-13.617,6.962
		c-8.491,0-19.89-8.262-16.524-28.076c2.677-15.759,11.398-24.939,23.562-24.939c3.672,0.077,7.727,1.759,10.787,4.208
		c2.372-2.907,5.355-4.131,8.568-3.749c4.819,0.612,6.426,4.284,4.973,6.885c-2.524,4.284-6.35,14.305-7.115,20.502
		c-0.841,7.344,0.765,12.24,3.672,12.24c3.672,0,8.032-6.809,9.792-14.306c1.224-5.202,11.704-0.612,9.944,5.126
		C323.365,402.35,316.557,411.453,305.235,411.453z M292.536,372.974c-1.377-1.224-3.443-1.989-5.584-1.989
		c-3.978,0-8.033,3.596-9.869,12.316c-1.836,9.027,0.153,15.147,4.437,15.147c5.278,0,8.186-7.88,9.41-17.519
		c0-0.153,0.076-0.383,0.076-0.536C291.389,377.563,291.848,375.192,292.536,372.974z"/>
	<path fill="#13342B" d="M329.868,356.909c6.731-1.454,8.645,2.371,7.497,5.049c-1.071,2.448-1.913,5.661-2.602,8.721
		c5.814-8.262,12.929-13.923,20.272-12.546c8.722,1.76,8.263,10.634,4.973,23.792c-3.289,13.005-0.841,16.524,2.295,16.524
		c3.672,0,8.109-6.809,9.792-14.306c1.225-5.202,11.781-0.612,10.021,5.125c-4.055,13.158-13.081,23.409-24.327,22.185
		c-10.48-0.994-14.993-8.339-12.469-24.327c1.3-7.727,2.83-15.988-0.612-15.988c-4.131,0-11.781,16.447-13.847,25.856l-0.382,1.377
		c-0.536,4.055-0.842,7.191-1.225,11.169c-0.535,5.891-14.382,4.132-14.382-2.601c0-6.809,0.918-15.988,3.442-30.676
		C319.923,366.854,322.601,358.362,329.868,356.909z"/>
	<path fill="#13342B" d="M402.237,358.438c2.601-14.076,6.885-23.103,13.693-23.103c4.896,0.077,9.026,3.596,7.573,6.12
		c-2.524,4.284-7.114,21.038-8.721,34.119c-1.989,15.988-1.071,22.491,1.836,22.491c3.748,0,8.108-6.809,9.792-14.382
		c1.224-5.125,11.781-0.536,9.945,5.202c-3.979,13.159-10.71,22.185-22.109,22.185c-4.896,0-8.721-2.678-11.245-7.956
		c-3.748,4.896-8.645,7.956-14.382,7.956c-8.262,0-19.737-8.567-16.295-28.381C374.927,367.313,386.937,356.067,402.237,358.438z
		 M400.478,370.984c-7.344-0.994-12.087,3.749-14.306,12.011c-2.601,8.797,0.076,15.146,4.208,15.146
		c5.278,0,8.186-7.726,9.333-17.289c0.076-1.683,0.152-3.29,0.382-5.049C400.172,374.197,400.248,372.515,400.478,370.984z"/>
	<path fill="#13342B" d="M252.144,486.117c-1.606-4.36,0.077-9.716,2.448-8.033c7.268,5.202,20.349-0.688,25.092-39.55
		c-16.371,6.885-23.256,20.349-17.519,24.327c1.759,1.3,0.459,2.754-2.983,2.906c-6.885,0.307-13.158-4.283-10.557-12.622
		c3.213-10.327,18.054-21.19,35.343-22.567c2.907-0.459,6.656,0.535,6.426,3.213C286.339,492.619,256.887,499.046,252.144,486.117z"
		/>
	<path fill="#13342B" d="M308.142,449.474c1.684-9.333,4.591-15.377,9.104-15.377c3.214,0.077,6.044,2.372,5.05,4.131
		c-1.684,2.907-4.743,14-5.814,22.721c-1.377,10.634-0.765,14.994,1.224,14.994c2.524,0,5.432-4.514,6.503-9.563
		c0.765-3.442,7.88-0.383,6.655,3.52c-2.601,8.721-7.114,14.764-14.688,14.764c-3.213,0-5.814-1.759-7.497-5.278
		c-2.524,3.213-5.738,5.278-9.563,5.278c-5.508,0-13.082-5.66-10.863-18.896C290.012,455.364,297.967,447.943,308.142,449.474z
		 M306.994,457.812c-4.896-0.688-8.032,2.525-9.486,8.033c-1.683,5.891,0.077,10.098,2.831,10.098c3.519,0,5.432-5.125,6.196-11.475
		c0.077-1.071,0.153-2.219,0.229-3.366C306.842,459.954,306.918,458.807,306.994,457.812z"/>
	<path fill="#13342B" d="M334.229,472.959c1.224,2.219,3.596,3.596,7.268,3.596c5.891,0,9.409-5.508,10.48-10.021
		c0.765-3.52,7.88-0.459,6.655,3.442c-2.678,8.568-9.257,15.3-18.666,15.3c-8.797,0-17.136-6.12-15.912-17.748
		c1.454-12.316,8.186-18.054,16.524-18.054c7.42,0.153,9.792,5.967,8.568,11.398C347.616,468.521,340.502,471.965,334.229,472.959z
		 M333.387,466.609c3.901-0.459,6.656-2.524,7.421-4.666c0.765-2.219-0.536-4.132-2.295-4.132
		C336.523,457.812,334.229,460.413,333.387,466.609z"/>
	<path fill="#13342B" d="M360.315,448.479c4.437-0.994,5.737,1.607,4.972,3.366c-0.765,1.684-1.3,3.825-1.683,5.814
		c3.825-5.508,8.568-9.257,13.464-8.339c5.814,1.147,5.508,7.114,3.29,15.836c-2.219,8.645-0.536,11.016,1.529,11.016
		c2.448,0,5.432-4.514,6.503-9.563c0.765-3.519,7.879-0.459,6.655,3.442c-2.678,8.722-8.721,15.606-16.218,14.765
		c-6.962-0.688-10.021-5.584-8.262-16.218c0.841-5.126,1.912-10.634-0.459-10.634c-2.755,0-7.88,10.939-9.181,17.213l-0.229,0.918
		c-0.382,2.678-0.535,4.743-0.765,7.42c-0.383,3.902-9.563,2.754-9.563-1.683c0-4.514,0.612-10.634,2.295-20.426
		C353.736,455.058,355.495,449.474,360.315,448.479z"/>
	<path fill="#13342B" d="M403.92,453.069c-1.147,0-2.295,0-3.213-0.077c-0.765,2.602-1.453,5.432-1.912,8.033
		c-1.837,10.48-0.612,14.917,1.377,14.917c2.524,0,5.201-4.514,6.349-9.563c0.766-3.442,7.804-0.383,6.656,3.52
		c-2.602,8.721-7.115,14.764-14.688,14.764c-7.649,0-11.245-8.415-9.409-23.944c0.459-3.519,1.071-6.655,1.683-9.563
		c-1.683-0.918-2.295-2.065-3.137-3.289c-2.295-3.213-1.07-5.432,1.989-4.819c0.842,0.152,1.989,0.382,3.366,0.459
		c1.989-5.432,4.207-8.568,5.508-8.492c3.213,0.153,8.798,2.831,7.804,4.361c-0.536,0.841-1.378,2.447-2.219,4.437h3.289
		C411.723,443.736,407.516,453.069,403.92,453.069z"/>
	<path fill="#13342B" d="M419.679,476.096c2.831,0,5.278-4.514,6.427-9.563c0.765-3.52,7.803-0.459,6.655,3.442
		c-2.602,8.721-8.186,15.376-16.142,14.765c-7.956-0.612-11.935-8.951-9.869-19.584c1.989-10.099,4.743-16.065,9.716-15.912
		c3.213,0,6.044,2.371,5.049,4.055c-0.994,1.683-2.524,6.655-3.901,12.239C416.619,469.134,415.854,476.096,419.679,476.096z
		 M422.203,434.326c2.372,0.153,4.82,1.989,3.214,5.509c-0.919,2.065-3.902,5.049-7.574,5.049c-1.988,0-3.825-2.295-3.825-5.737
		C414.018,436.851,416.084,434.021,422.203,434.326z"/>
	<path fill="#13342B" d="M441.558,453.069c-1.147,0-2.295,0-3.213-0.077c-0.765,2.602-1.453,5.432-1.912,8.033
		c-1.836,10.48-0.612,14.917,1.377,14.917c2.524,0,5.202-4.514,6.35-9.563c0.765-3.442,7.803-0.383,6.655,3.52
		c-2.601,8.721-7.114,14.764-14.688,14.764c-7.65,0-11.246-8.415-9.41-23.944c0.459-3.519,1.071-6.655,1.684-9.563
		c-1.684-0.918-2.295-2.065-3.137-3.289c-2.295-3.213-1.071-5.432,1.989-4.819c0.841,0.152,1.988,0.382,3.365,0.459
		c1.989-5.432,4.208-8.568,5.509-8.492c3.213,0.153,8.797,2.831,7.803,4.361c-0.536,0.841-1.377,2.447-2.219,4.437H445
		C449.361,443.736,445.153,453.069,441.558,453.069z"/>
	<path fill="#13342B" d="M457.699,484.281c-0.841,0.306-1.836,0.459-2.83,0.459c-8.415,0-12.775-8.263-10.328-21.649
		c1.989-10.175,5.355-14.076,9.333-13.923c3.214,0,5.968,2.371,4.973,4.054c-0.994,1.684-1.988,4.59-3.442,10.175
		c-1.606,6.426-2.065,12.699,1.53,12.699c2.678,0,4.437-4.59,5.584-9.486c0-0.076,0.077-0.153,0.077-0.229
		c2.065-11.245-0.459-13.77,3.137-15.3c4.36-1.912,9.256,0,8.491,7.268c-2.295,24.174-11.093,39.78-23.104,39.703
		c-4.59-0.076-7.879-2.219-8.797-5.049c-1.454-4.59,2.677-9.868,4.437-6.809c0.688,1.147,2.602,2.983,6.12,2.602
		C454.64,488.642,456.246,487.265,457.699,484.281z"/>
</g>
</svg>
