<?xml version="1.0" encoding="utf-8"?>
<!-- Generator: Adobe Illustrator 16.0.0, SVG Export Plug-In . SVG Version: 6.00 Build 0)  -->
<!DOCTYPE svg PUBLIC "-//W3C//DTD SVG 1.1//EN" "http://www.w3.org/Graphics/SVG/1.1/DTD/svg11.dtd">
<svg version="1.1" id="Layer_1" xmlns="http://www.w3.org/2000/svg" xmlns:xlink="http://www.w3.org/1999/xlink" x="0px" y="0px"
	 width="603px" height="259px" viewBox="4.5 265.5 603 259" enable-background="new 4.5 265.5 603 259" xml:space="preserve">
<g>
	<path fill="#13342B" d="M39.55,328.756c0.765-2.448,6.885,2.448,5.584,7.65c-0.994,4.361-6.961,10.404-17.212,9.257
		c-14.229-1.606-20.502-15.989-17.671-35.419c2.831-19.125,15.3-31.059,28.535-30.523c5.202,0.229,10.48,2.907,13.158,8.491
		c1.377,2.907-6.579,9.792-7.114,7.956c-1.989-5.584-5.125-7.956-8.492-7.879c-6.885,0.153-13.693,9.486-15.988,23.256
		c-2.295,13.693,1.377,22.874,8.032,24.557C32.972,337.171,37.714,334.188,39.55,328.756z"/>
	<path fill="#13342B" d="M57.528,303.129c1.76-3.29,5.738-5.661,11.093-4.743c3.06,0.536,6.579,2.601,8.721,6.426
		c3.825-1.683,7.803-3.901,11.705-5.967c3.519-1.836,7.42,3.749,0.995,7.497c-3.519,2.066-7.191,4.055-10.71,5.584
		c0.153,1.683,0,3.672-0.306,5.814c-1.913,12.47-10.021,17.06-17.978,17.06c-8.797,0-15.606-6.502-14.305-18.054
		C47.506,308.867,52.402,304.659,57.528,303.129z M57.911,311.544c-1.071,1.606-1.913,3.519-2.065,5.584
		c-0.536,4.973,1.683,8.951,6.12,8.951c3.825,0,7.268-4.667,7.88-9.792c0.076-0.459,0.153-0.918,0.153-1.377
		c-4.131,0.765-7.727,0.459-10.251-1.606C58.905,312.768,58.37,312.156,57.911,311.544z M69.08,307.489
		c-0.688-1.377-1.683-2.295-3.213-2.295c-2.295,0-1.989,1.989-0.306,2.295C66.708,307.643,67.855,307.643,69.08,307.489z"/>
	<path fill="#13342B" d="M112.149,309.785c3.978-7.191,9.104-12.011,14.612-11.016c5.814,1.147,5.431,7.114,3.213,15.835
		c-2.219,8.645-0.459,11.016,1.606,11.016c2.448,0,5.355-4.514,6.502-9.563c0.765-3.519,7.879-0.459,6.655,3.442
		c-2.677,8.721-8.644,15.606-16.218,14.765c-6.961-0.688-10.021-5.584-8.186-16.218c0.841-5.125,1.836-10.633-0.459-10.633
		c-3.596,0-9.41,17.748-10.328,25.475c-0.153,0.994-0.612,1.53-1.224,1.836c-2.525,1.606-8.262,0.153-8.262-3.443
		c0-3.213,0.459-8.262,1.454-13.234c0.994-5.049,1.913-10.633-0.459-10.633c-3.672,0-8.186,12.623-9.716,20.272
		c0,0.077-0.076,0.153-0.076,0.153l-0.459,5.125c-0.383,3.902-9.563,2.754-9.563-1.683c0-4.514,0.612-10.634,2.295-20.426
		c1.071-6.35,2.831-12.011,7.65-12.929c4.437-0.994,5.737,1.607,4.973,3.366c-0.765,1.683-1.377,3.901-1.76,5.967
		c3.749-5.737,8.338-9.563,13.541-8.568C112.302,299.687,112.608,304.889,112.149,309.785z"/>
	<path fill="#13342B" d="M167.382,309.785c3.978-7.191,9.104-12.011,14.612-11.016c5.814,1.147,5.431,7.114,3.213,15.835
		c-2.219,8.645-0.459,11.016,1.606,11.016c2.448,0,5.355-4.514,6.502-9.563c0.765-3.519,7.879-0.459,6.656,3.442
		c-2.678,8.721-8.645,15.606-16.218,14.765c-6.961-0.688-10.021-5.584-8.186-16.218c0.842-5.125,1.836-10.633-0.459-10.633
		c-3.595,0-9.409,17.748-10.327,25.475c-0.153,0.994-0.612,1.53-1.224,1.836c-2.524,1.606-8.262,0.153-8.262-3.443
		c0-3.213,0.459-8.262,1.454-13.234c0.995-5.049,1.913-10.633-0.459-10.633c-3.672,0-8.186,12.623-9.715,20.272
		c0,0.077-0.077,0.153-0.077,0.153l-0.459,5.125c-0.383,3.902-9.563,2.754-9.563-1.683c0-4.514,0.612-10.634,2.295-20.426
		c1.071-6.35,2.831-12.011,7.65-12.929c4.437-0.994,5.738,1.607,4.973,3.366c-0.765,1.683-1.377,3.901-1.76,5.967
		c3.749-5.737,8.339-9.563,13.541-8.568C167.535,299.687,167.841,304.889,167.382,309.785z"/>
	<path fill="#13342B" d="M206.32,325.62c2.984,0,4.896-5.584,6.12-11.016c0-0.153,0.077-0.153,0.077-0.306
		c1.454-11.475,5.202-15.606,10.174-14.994c3.213,0.459,4.361,2.907,3.366,4.59c-1.683,2.831-4.208,9.563-4.667,13.541
		c-0.612,4.973,0.382,8.186,2.295,8.186c2.524,0,5.432-4.514,6.502-9.563c0.765-3.519,7.879-0.459,6.655,3.442
		c-2.601,8.645-7.114,14.765-14.688,14.765c-3.366,0-6.655-1.683-8.491-5.661c-2.448,3.366-5.584,5.661-9.41,5.661
		c-8.415,0-13.005-8.262-10.404-21.649c1.989-10.175,5.278-14.076,9.18-13.923c3.213,0,6.044,2.372,5.125,4.055
		c-1.071,1.683-2.142,4.59-3.519,10.174C202.955,319.347,202.648,325.62,206.32,325.62z"/>
	<path fill="#13342B" d="M238.604,298.003c4.437-0.995,5.737,1.606,4.973,3.366c-0.765,1.683-1.301,3.825-1.683,5.814
		c3.825-5.508,8.568-9.257,13.464-8.338c5.814,1.147,5.508,7.114,3.29,15.835c-2.219,8.645-0.536,11.016,1.53,11.016
		c2.448,0,5.432-4.513,6.503-9.563c0.765-3.519,7.879-0.459,6.655,3.443c-2.677,8.721-8.721,15.606-16.218,14.764
		c-6.962-0.688-10.022-5.584-8.262-16.218c0.841-5.125,1.913-10.634-0.459-10.634c-2.754,0-7.879,10.939-9.18,17.213l-0.229,0.918
		c-0.382,2.677-0.535,4.743-0.765,7.42c-0.383,3.901-9.563,2.754-9.563-1.683c0-4.514,0.612-10.633,2.295-20.425
		C231.948,304.583,233.784,298.998,238.604,298.003z"/>
	<path fill="#13342B" d="M278.001,325.62c2.448,0,5.355-4.514,6.502-9.563c0.765-3.519,7.803-0.459,6.656,3.442
		c-2.601,8.721-8.645,15.606-16.218,14.765c-6.732-0.688-10.021-9.104-7.956-19.584c1.989-10.098,4.743-16.065,9.716-15.912
		c3.213,0,6.043,2.372,5.049,4.055c-0.995,1.683-2.524,6.655-3.901,12.24C276.854,318.659,275.859,325.62,278.001,325.62z
		 M282.438,283.928c2.372,0.153,5.432,2.065,3.825,5.584c-0.918,2.065-3.902,5.049-7.574,5.049c-1.989,0-4.59-1.53-4.59-5.355
		C274.176,286.911,276.318,283.622,282.438,283.928z"/>
	<path fill="#13342B" d="M307.606,307.948c-0.765,4.743-9.715,8.339-8.797,4.973c0.382-1.377,2.983-5.508-0.077-5.508
		c-2.065,0-4.59,2.907-5.355,9.639c-0.536,4.973,1.989,8.645,6.732,8.645c4.437,0,8.186-4.131,9.409-9.563
		c0.766-3.519,7.804-0.459,6.656,3.443c-2.678,8.797-7.88,14.764-17.595,14.764c-7.42,0-15.606-5.584-14.306-17.212
		c1.377-12.699,7.879-18.054,15.912-18.054C305.082,299.075,308.448,302.823,307.606,307.948z"/>
	<path fill="#13342B" d="M337.671,334.341c-3.137,0-6.043-1.377-7.956-4.667c-2.448,2.831-5.584,4.667-9.104,4.667
		c-5.661,0-13.234-5.508-10.939-18.666c1.76-10.48,7.573-16.6,15.683-16.6c2.448,0.076,5.126,1.147,7.191,2.83
		c1.606-1.989,3.519-2.754,5.737-2.524c3.213,0.459,4.284,2.907,3.289,4.59c-1.683,2.907-4.207,9.563-4.743,13.617
		c-0.535,4.896,0.459,8.109,2.448,8.109c2.448,0,5.355-4.513,6.503-9.563c0.765-3.519,7.803-0.459,6.655,3.443
		C349.682,328.221,345.168,334.341,337.671,334.341z M329.18,308.713c-0.918-0.765-2.295-1.377-3.749-1.377
		c-2.601,0-5.354,2.372-6.579,8.186c-1.224,5.967,0.153,10.098,2.907,10.098c3.52,0,5.432-5.279,6.273-11.628
		c0-0.153,0.076-0.229,0.076-0.383C328.414,311.773,328.721,310.167,329.18,308.713z"/>
	<path fill="#13342B" d="M361.156,302.594c-1.147,0-2.295,0-3.213-0.077c-0.765,2.601-1.453,5.431-1.912,8.032
		c-1.836,10.48-0.612,14.917,1.377,14.917c2.524,0,5.202-4.513,6.35-9.563c0.765-3.442,7.803-0.382,6.655,3.519
		c-2.602,8.721-7.114,14.765-14.688,14.765c-7.649,0-11.245-8.415-9.409-23.944c0.459-3.519,1.071-6.656,1.683-9.563
		c-1.683-0.918-2.295-2.066-3.136-3.29c-2.295-3.213-1.071-5.432,1.988-4.819c0.842,0.153,1.989,0.382,3.366,0.459
		c1.989-5.432,4.208-8.568,5.508-8.492c3.213,0.153,8.798,2.831,7.804,4.437c-0.536,0.841-1.377,2.448-2.219,4.437h3.289
		C368.959,293.337,364.828,302.594,361.156,302.594z"/>
	<path fill="#13342B" d="M375.003,325.62c2.448,0,5.355-4.514,6.503-9.563c0.765-3.519,7.803-0.459,6.655,3.442
		c-2.602,8.721-8.645,15.606-16.218,14.765c-6.732-0.688-10.021-9.104-7.956-19.584c1.988-10.098,4.743-16.065,9.715-15.912
		c3.214,0,6.044,2.372,5.05,4.055c-0.995,1.683-2.525,6.655-3.902,12.24C373.855,318.659,372.861,325.62,375.003,325.62z
		 M379.44,283.928c2.371,0.153,5.431,2.065,3.824,5.584c-0.918,2.065-3.901,5.049-7.573,5.049c-1.989,0-4.59-1.53-4.59-5.355
		C371.178,286.911,373.396,283.622,379.44,283.928z"/>
	<path fill="#13342B" d="M392.216,303.129c1.759-3.29,5.737-5.661,11.092-4.743c3.061,0.536,6.579,2.601,8.722,6.426
		c3.825-1.683,7.803-3.901,11.704-5.967c3.52-1.836,7.421,3.749,0.994,7.497c-3.519,2.066-7.19,4.055-10.71,5.584
		c0.153,1.683,0,3.672-0.306,5.814c-1.912,12.47-10.021,17.06-17.978,17.06c-8.798,0-15.605-6.502-14.306-18.054
		C382.194,308.867,387.09,304.659,392.216,303.129z M392.598,311.544c-1.07,1.606-1.912,3.519-2.065,5.584
		c-0.535,4.973,1.684,8.951,6.12,8.951c3.825,0,7.268-4.667,7.88-9.792c0.076-0.459,0.152-0.918,0.152-1.377
		c-4.131,0.765-7.726,0.459-10.251-1.606C393.593,312.768,393.057,312.156,392.598,311.544z M403.767,307.489
		c-0.688-1.377-1.683-2.295-3.213-2.295c-2.295,0-1.988,1.989-0.306,2.295C401.396,307.643,402.543,307.643,403.767,307.489z"/>
	<path fill="#13342B" d="M425.952,298.003c4.437-0.995,5.737,1.606,4.973,3.366c-0.766,1.683-1.301,3.825-1.684,5.814
		c3.825-5.508,8.568-9.257,13.464-8.338c5.814,1.147,5.509,7.114,3.29,15.835c-2.219,8.645-0.536,11.016,1.53,11.016
		c2.447,0,5.431-4.513,6.502-9.563c0.765-3.519,7.88-0.459,6.655,3.443c-2.677,8.721-8.721,15.606-16.218,14.764
		c-6.961-0.688-10.021-5.584-8.262-16.218c0.842-5.125,1.912-10.634-0.459-10.634c-2.754,0-7.88,10.939-9.18,17.213l-0.23,0.918
		c-0.382,2.677-0.535,4.743-0.765,7.42c-0.383,3.901-9.563,2.754-9.563-1.683c0-4.514,0.612-10.633,2.295-20.425
		C419.373,304.583,421.133,298.998,425.952,298.003z"/>
	<path fill="#13342B" d="M513.009,307.948c-1.377,0.153-2.601,0.229-3.748,0.306c-0.307,1.377-0.612,2.907-0.842,4.361
		c-1.836,10.48,0.153,14.917,2.065,14.917c3.825,0,6.044-7.727,6.044-12.852c0-3.519,8.415,0,7.879,4.054
		c-1.224,10.251-7.038,17.978-15.146,17.519c-4.055-0.153-7.345-2.524-9.333-6.961c-2.754,2.907-6.656,5.049-11.781,4.973
		c-10.863-0.229-17.519-8.951-15.683-19.584c1.071-6.197,5.202-10.634,11.093-12.929c-3.52-3.366-5.049-8.032-3.901-13.617
		c1.988-9.792,11.092-14.764,19.736-14.076c5.968,0.459,9.41,3.136,11.169,6.655c1.301,2.678-7.268,9.563-7.803,7.803
		c-1.071-2.983-3.137-5.278-5.432-5.508c-4.437-0.383-7.268,2.295-7.879,6.273c-0.766,5.355,2.065,10.404,11.475,10.021
		c0.153,0,0.229,0,0.306,0.076c2.372-7.344,5.279-11.169,6.886-11.092c3.213,0.153,8.874,2.907,7.803,4.437
		c-1.301,1.683-2.371,3.749-3.442,5.967c0.994-0.077,1.989-0.153,3.137-0.306C519.971,297.927,516.604,307.566,513.009,307.948z
		 M499.315,307.03c-0.076,0.077-0.153,0.077-0.229,0.077c-7.727-1.071-14.917,2.219-16.142,7.803
		c-1.224,5.584,1.071,10.021,5.967,10.021c6.044,0,8.492-6.12,9.41-10.787c0-0.077,0-0.077,0.076-0.153l0.153-1.76
		C498.703,310.396,498.933,308.637,499.315,307.03z"/>
	<path fill="#13342B" d="M257.27,368.078c-0.918,6.12-4.514,10.327-9.256,13.082c5.431,3.06,8.032,8.491,6.961,15.835
		c-1.913,13.234-15.835,18.131-28.611,12.087c-1.3-0.611-1.912-2.83-1.912-5.049c-5.279,6.273-10.939,7.038-14.076,3.52
		c-2.142-2.448-1.53-7.804,0.382-7.345c8.492,2.143,13.005-8.95,15.453-40.698c-9.104,3.596-12.24,11.858-8.262,16.448
		c1.377,1.683-0.229,2.754-3.596,2.065c-6.656-1.3-11.628-7.268-7.115-14.688c4.514-7.344,13.694-13.923,28.535-13.923
		C250.308,349.335,258.876,357.214,257.27,368.078z M227.281,399.825c8.721,4.743,16.83,3.596,18.054-4.131
		c0.918-5.737-4.208-10.557-12.469-10.557C231.489,391.181,229.5,396.076,227.281,399.825z M235.85,357.673
		c0,7.727-0.536,14.535-1.53,20.426h0.306c0.459,0,0.995,0.076,1.377,0.076c6.273-0.076,11.246-4.437,12.011-10.174
		C248.854,362.34,246.024,357.521,235.85,357.673z"/>
	<path fill="#13342B" d="M281.673,385.367c-0.994,5.049-0.229,9.027,1.76,9.027c2.907,0,4.36-4.437,5.508-9.486
		c0.765-3.366,7.727-0.383,6.579,3.442c-2.601,8.644-6.732,14.612-14.229,14.612c-5.891,0-11.169-5.202-9.18-16.831
		c0.688-3.978,1.913-7.038,3.366-9.333c-1.606,0.229-3.366,0.306-5.125,0.229c-1.071,6.961-3.06,15.912-5.432,22.185
		c-1.224,3.213-8.797,1.606-7.65-1.683c2.448-6.809,4.284-15.836,4.896-22.874c-6.961-5.355-1.76-14.535,5.432-14.535
		c3.06,0,3.825,0.995,3.825,7.268c0,0.459-0.076,1.224-0.153,1.989c3.672,0.459,8.032-0.153,10.863-1.759
		c2.754-1.53,6.426,6.196,4.743,7.65C284.733,377.181,282.515,381.771,281.673,385.367z"/>
	<path fill="#13342B" d="M316.71,403.191c-3.06,0-5.967-1.377-7.88-4.591c-2.447,2.755-5.508,4.591-8.95,4.591
		c-5.584,0-13.082-5.432-10.863-18.514c1.759-10.404,7.497-16.447,15.529-16.447c2.448,0.077,5.125,1.147,7.115,2.754
		c1.606-1.913,3.519-2.754,5.661-2.448c3.136,0.459,4.207,2.831,3.289,4.513c-1.606,2.831-4.207,9.41-4.666,13.464
		c-0.536,4.819,0.459,8.032,2.447,8.032c2.448,0,5.279-4.437,6.427-9.409c0.765-3.443,7.727-0.459,6.579,3.366
		C328.721,397.147,324.207,403.191,316.71,403.191z M308.371,377.87c-0.918-0.765-2.218-1.301-3.671-1.301
		c-2.601,0-5.279,2.372-6.502,8.109c-1.224,5.891,0.153,9.945,2.907,9.945c3.442,0,5.431-5.202,6.197-11.552
		c0-0.153,0.076-0.229,0.076-0.382C307.606,380.853,307.912,379.323,308.371,377.87z"/>
	<path fill="#13342B" d="M333.005,367.236c4.437-0.994,5.737,1.606,4.896,3.29c-0.765,1.606-1.301,3.749-1.683,5.738
		c3.825-5.432,8.491-9.18,13.311-8.262c5.737,1.147,5.432,7.038,3.29,15.683c-2.219,8.568-0.536,10.863,1.529,10.863
		c2.448,0,5.355-4.437,6.427-9.409c0.765-3.443,7.726-0.459,6.578,3.366c-2.677,8.645-8.645,15.377-15.988,14.611
		c-6.885-0.688-9.868-5.508-8.186-15.988c0.842-5.049,1.913-10.48-0.459-10.48c-2.754,0-7.727,10.787-9.104,17.06l-0.229,0.918
		c-0.382,2.678-0.535,4.743-0.765,7.344c-0.383,3.901-9.486,2.754-9.486-1.683c0-4.437,0.612-10.48,2.219-20.196
		C326.426,373.815,328.185,368.23,333.005,367.236z"/>
	<path fill="#13342B" d="M380.588,368.307c1.683-9.257,4.513-15.224,9.026-15.224c3.213,0.077,5.967,2.372,4.973,4.055
		c-1.606,2.83-4.666,13.846-5.737,22.491c-1.301,10.48-0.766,14.841,1.224,14.841c2.448,0,5.355-4.437,6.426-9.486
		c0.766-3.366,7.727-0.382,6.579,3.442c-2.601,8.645-7.038,14.612-14.535,14.612c-3.213,0-5.737-1.76-7.42-5.278
		c-2.448,3.213-5.737,5.278-9.486,5.278c-5.432,0-13.005-5.585-10.71-18.666C362.61,374.121,370.566,366.701,380.588,368.307z
		 M379.44,376.493c-4.82-0.688-7.956,2.448-9.41,7.879c-1.683,5.814,0.077,9.945,2.754,9.945c3.442,0,5.432-5.049,6.12-11.398
		c0.077-1.071,0.153-2.142,0.229-3.29C379.287,378.634,379.287,377.563,379.44,376.493z"/>
	<path fill="#13342B" d="M454.181,394.241c-0.307,8.797-7.268,17.977-19.125,17.977c-12.47,0-19.432-9.409-19.432-20.502
		c0-5.584,9.563-9.563,9.563-5.431c0,0.918-0.152,1.836-0.152,2.677c-0.612,8.491,4.514,14.382,9.944,14.382
		c5.738,0,8.722-3.519,9.027-8.491c0.229-4.437-1.76-8.721-8.262-12.316c-6.426-3.749-10.021-8.339-10.021-15.759
		c0-9.409,7.497-16.906,18.054-16.906c9.639,0,14.152,8.491,7.573,17.901c-3.136,4.437-8.338,4.208-10.403,2.448
		c-0.459-0.229-0.459-0.765,0.076-1.224c5.737-4.514,5.355-11.016,0.229-11.016c-3.06,0-5.814,2.678-5.814,7.191
		c0,3.978,0.459,6.809,8.033,11.322C451.12,381.006,454.486,385.596,454.181,394.241z"/>
	<path fill="#13342B" d="M472.617,371.826c-1.147,0-2.219,0-3.213-0.077c-0.766,2.601-1.454,5.355-1.913,7.879
		c-1.836,10.404-0.611,14.765,1.301,14.765c2.524,0,5.126-4.437,6.273-9.486c0.765-3.366,7.726-0.382,6.578,3.443
		c-2.601,8.644-7.038,14.612-14.534,14.612c-7.574,0-11.169-8.339-9.257-23.715c0.459-3.442,0.994-6.579,1.683-9.486
		c-1.606-0.918-2.295-2.065-3.06-3.289c-2.219-3.213-0.994-5.355,1.989-4.743c0.841,0.153,1.988,0.382,3.365,0.459
		c1.989-5.355,4.208-8.492,5.432-8.415c3.137,0.153,8.645,2.754,7.727,4.36c-0.535,0.842-1.301,2.448-2.219,4.437h3.29
		C480.344,362.569,476.213,371.826,472.617,371.826z"/>
	<path fill="#13342B" d="M488.605,402.732c-0.842,0.306-1.836,0.459-2.754,0.459c-8.339,0-12.699-8.186-10.175-21.42
		c1.913-10.098,5.278-13.923,9.181-13.77c3.136,0,5.89,2.372,4.896,3.978c-0.994,1.683-1.989,4.514-3.366,10.021
		c-1.606,6.35-2.065,12.546,1.53,12.546c2.678,0,4.36-4.513,5.508-9.333c0-0.076,0.077-0.153,0.077-0.229
		c2.065-11.092-0.459-13.617,3.06-15.147c4.284-1.836,9.18,0,8.415,7.191c-2.295,23.945-10.939,39.321-22.874,39.245
		c-4.513-0.076-7.726-2.142-8.644-5.049c-1.454-4.514,2.677-9.716,4.36-6.732c0.688,1.147,2.524,2.983,6.043,2.602
		C485.622,407.016,487.229,405.639,488.605,402.732z"/>
	<path fill="#13342B" d="M521.807,353.39c3.137,0.459,5.661,2.907,4.514,4.437c-1.913,2.754-7.727,13.234-9.716,21.726
		c-2.295,10.328-0.842,14.841,1.147,14.841c2.448,0,5.278-4.437,6.35-9.486c0.765-3.366,7.727-0.382,6.579,3.443
		c-2.678,8.644-7.114,14.612-14.535,14.612c-6.885,0-11.857-9.181-9.18-24.174C509.72,363.564,515.61,352.854,521.807,353.39z"/>
	<path fill="#13342B" d="M534.047,391.486c1.224,2.142,3.595,3.596,7.19,3.596c5.814,0,9.333-5.432,10.404-9.945
		c0.765-3.443,7.727-0.459,6.579,3.366c-2.678,8.491-9.181,15.07-18.514,15.07c-8.645,0-16.982-6.043-15.682-17.518
		c1.453-12.24,8.032-17.901,16.294-17.901c7.344,0.153,9.716,5.891,8.491,11.246C547.281,387.049,540.319,390.492,534.047,391.486z
		 M533.205,385.213c3.901-0.459,6.579-2.448,7.344-4.667c0.766-2.218-0.535-4.054-2.219-4.054
		C536.342,376.493,534.047,379.093,533.205,385.213z"/>
	<path fill="#13342B" d="M357.943,444.271c2.602-14.076,6.885-23.103,13.693-23.103c4.896,0.076,9.027,3.595,7.574,6.119
		c-2.525,4.284-7.115,21.038-8.722,34.119c-1.989,15.989-1.07,22.491,1.836,22.491c3.749,0,8.109-6.809,9.792-14.382
		c1.225-5.126,11.781-0.535,9.945,5.202c-3.979,13.158-10.71,22.185-22.108,22.185c-4.896,0-8.721-2.678-11.245-7.956
		c-3.749,4.896-8.645,7.956-14.383,7.956c-8.262,0-19.736-8.567-16.294-28.381C330.709,453.069,342.644,441.9,357.943,444.271z
		 M356.184,456.741c-7.344-0.995-12.087,3.748-14.305,12.011c-2.602,8.797,0.076,15.146,4.207,15.146
		c5.278,0,8.186-7.727,9.333-17.289c0.076-1.683,0.153-3.289,0.383-5.049C355.954,459.954,356.031,458.348,356.184,456.741z"/>
	<path fill="#13342B" d="M397.111,479.538c1.836,3.289,5.432,5.432,10.863,5.432c8.874,0,14.152-8.263,15.759-15.07
		c1.224-5.202,11.781-0.612,10.021,5.125c-4.055,12.853-13.923,22.95-28.075,22.95c-13.158,0-25.781-9.18-23.868-26.622
		c2.219-18.513,12.24-27.157,24.786-27.157c11.169,0.152,14.765,9.026,12.929,17.06
		C417.154,472.806,406.598,478.084,397.111,479.538z M395.811,469.976c5.891-0.612,9.945-3.749,11.17-7.038
		c1.224-3.289-0.842-6.12-3.443-6.12C400.478,456.741,397.111,460.719,395.811,469.976z"/>
	<path fill="#13342B" d="M433.602,497.057c-10.251-1.913-16.677-14.382-10.327-26.775c3.29-6.426,13.388-4.514,11.781,0.536
		c-2.219,6.579-2.754,12.01,1.53,13.464c3.06,0.994,6.196-0.842,6.196-5.126c0-10.251-12.24-13.693-12.24-22.873
		c0-9.792,7.956-14.306,16.754-14.306c7.344,0.076,12.928,4.284,11.857,11.934c-1.225,8.722-12.47,10.404-11.017,5.202
		c0.612-2.371,0.536-5.354-2.142-5.354c-1.76,0-2.831,1.3-2.831,3.672c0,5.891,14.306,9.18,14.306,21.42
		C457.47,492.926,446.607,499.657,433.602,497.057z"/>
	<path fill="#13342B" d="M477.207,484.204c3.672,0,8.032-6.808,9.792-14.305c1.224-5.202,11.704-0.612,9.945,5.125
		c-3.979,13.158-13.005,23.409-24.327,22.185c-10.099-0.994-14.994-13.693-12.011-29.452c2.983-15.146,7.191-24.174,14.535-23.944
		c4.896,0,9.026,3.596,7.573,6.044c-1.453,2.601-3.748,10.021-5.891,18.359C475.524,473.724,473.994,484.204,477.207,484.204z
		 M483.862,421.551c3.596,0.153,8.186,3.137,5.814,8.415c-1.377,3.137-5.891,7.65-11.322,7.65c-2.983,0-6.885-2.295-6.885-8.109
		C471.47,425.988,474.759,421.092,483.862,421.551z"/>
	<path fill="#13342B" d="M506.507,496.98c-0.918,0.152-1.913,0.306-2.983,0.306c-8.415,0-19.278-8.186-16.524-28.075
		c2.601-17.978,13.081-28.611,23.639-24.939c2.142,0.842,4.131,2.907,5.813,5.585c0-6.886-1.07-7.268,2.372-8.798
		c6.35-2.754,13.54,2.907,12.01,18.054c-3.595,36.261-15.911,58.6-33.966,58.446c-7.19-0.076-12.929-4.973-13.999-10.557
		c-1.454-7.038,4.666-15.147,6.731-10.252c0.842,1.837,4.667,6.962,9.333,6.962C501.687,503.712,504.212,501.57,506.507,496.98z
		 M514.769,466.992v0.076l0.535-3.06c-0.382-3.29-2.524-6.809-5.049-7.268c-4.055-0.766-7.344,3.596-9.104,12.316
		c-1.836,9.026,0.153,15.146,4.36,15.146C510.561,484.204,512.703,476.325,514.769,466.992z"/>
	<path fill="#13342B" d="M545.063,442.741c6.732-1.453,8.645,2.372,7.497,5.049c-1.071,2.448-1.913,5.661-2.602,8.722
		c5.814-8.262,12.929-13.923,20.272-12.546c8.722,1.759,8.263,10.633,4.973,23.791c-3.289,13.005-0.841,16.524,2.295,16.524
		c3.673,0,8.109-6.809,9.792-14.306c1.225-5.202,11.781-0.612,10.021,5.125c-4.054,13.158-13.081,23.409-24.326,22.186
		c-10.48-0.994-14.994-8.339-12.47-24.327c1.301-7.727,2.83-15.988-0.612-15.988c-4.131,0-11.781,16.447-13.847,25.856l-0.382,1.377
		c-0.536,4.055-0.842,7.191-1.225,11.169c-0.535,5.891-14.382,4.132-14.382-2.601c0-6.809,0.918-15.988,3.442-30.677
		C535.117,452.61,537.795,444.195,545.063,442.741z"/>
</g>
</svg>
