<?xml version="1.0" encoding="utf-8"?>
<!-- Generator: Adobe Illustrator 16.0.0, SVG Export Plug-In . SVG Version: 6.00 Build 0)  -->
<!DOCTYPE svg PUBLIC "-//W3C//DTD SVG 1.1//EN" "http://www.w3.org/Graphics/SVG/1.1/DTD/svg11.dtd">
<svg version="1.1" id="Layer_1" xmlns="http://www.w3.org/2000/svg" xmlns:xlink="http://www.w3.org/1999/xlink" x="0px" y="0px"
	 width="307px" height="186px" viewBox="152.5 289.5 307 186" enable-background="new 152.5 289.5 307 186" xml:space="preserve">
<g>
	<path fill="#13342B" d="M180.463,396.842c-3.29,3.136-6.655,4.743-9.868,4.743c-8.721,0-12.929-6.732-11.399-14.612
		c1.53-8.798,8.492-12.929,17.748-9.104c2.754-5.967,5.814-14.765,10.404-28.305c12.469-36.567,20.043-48.578,38.938-48.578
		c17.748,0,20.196,19.584,12.469,28.917c-9.104,10.94-24.25,6.35-20.349,2.754c7.191-6.809,9.868-18.207,4.667-18.284
		c-5.584-0.153-12.011,16.677-21.267,43.069c-3.902,10.863-8.033,20.272-12.316,27.54c16.983,9.639,33.048,15.147,40.239,12.01
		c4.973-2.218,3.442,11.857-4.437,15.912C214.889,418.338,195.917,407.475,180.463,396.842z"/>
	<path fill="#13342B" d="M250.461,345.127c2.219-3.136,5.432-5.125,9.945-5.125c8.415,0,19.431,8.262,16.524,28.152
		c-0.612,3.825-1.53,7.191-2.831,10.098c4.36-2.218,6.809-7.879,8.032-12.929c1.071-5.125,11.628-0.153,9.869,5.585
		c-4.36,14.305-13.158,19.354-23.333,18.666c-1.071-0.077-2.142-0.306-3.137-0.536c-4.59,3.366-10.098,4.743-15.529,4.743
		c-13.158,0-23.485-9.715-21.573-27.157C229.959,351.859,241.128,345.51,250.461,345.127z M253.98,380.624
		c-2.983-4.055-4.973-9.104-6.043-14.382c-0.765-3.596-0.995-7.191-0.765-10.481c-2.754,2.831-4.59,7.038-5.049,11.628
		c-0.842,7.42,1.836,13.387,10.098,13.387C252.756,380.776,253.368,380.776,253.98,380.624z M261.324,372.82
		c0.841-1.989,1.453-4.284,1.759-6.732c0.918-7.727-0.077-13.005-3.06-13.005c-1.989,0-3.672,3.672-2.142,10.939
		C258.494,366.854,259.641,370.066,261.324,372.82z"/>
	<path fill="#13342B" d="M301.486,392.787c-0.918,0.153-1.912,0.306-2.983,0.306c-8.415,0-19.278-8.186-16.524-28.075
		c2.601-17.978,13.082-28.611,23.639-24.939c2.142,0.841,4.13,2.907,5.814,5.584c0-6.885-1.071-7.268,2.371-8.798
		c6.35-2.754,13.541,2.907,12.011,18.054c-3.596,36.261-15.912,58.599-33.966,58.446c-7.191-0.076-12.929-4.973-14-10.557
		c-1.454-7.038,4.667-15.147,6.732-10.251c0.841,1.836,4.667,6.961,9.333,6.961C296.59,399.519,299.191,397.377,301.486,392.787z
		 M309.672,362.799v0.077l0.535-3.06c-0.382-3.29-2.524-6.809-5.048-7.268c-4.055-0.765-7.344,3.596-9.104,12.316
		c-1.836,9.027,0.153,15.147,4.36,15.147C305.541,380.012,307.683,372.132,309.672,362.799z"/>
	<path fill="#13342B" d="M349.299,345.127c2.219-3.136,5.432-5.125,9.945-5.125c8.415,0,19.431,8.262,16.523,28.152
		c-0.611,3.825-1.529,7.191-2.83,10.098c4.36-2.218,6.809-7.879,8.032-12.929c1.071-5.125,11.628-0.153,9.869,5.585
		c-4.361,14.305-13.158,19.354-23.333,18.666c-1.071-0.077-2.142-0.306-3.137-0.536c-4.59,3.366-10.098,4.743-15.529,4.743
		c-13.158,0-23.485-9.715-21.573-27.157C328.873,351.859,339.966,345.51,349.299,345.127z M352.818,380.624
		c-2.983-4.055-4.973-9.104-6.044-14.382c-0.765-3.596-0.994-7.191-0.765-10.481c-2.754,2.831-4.59,7.038-5.049,11.628
		c-0.842,7.42,1.836,13.387,10.098,13.387C351.594,380.776,352.206,380.776,352.818,380.624z M360.162,372.82
		c0.842-1.989,1.453-4.284,1.76-6.732c0.918-7.727-0.077-13.005-3.061-13.005c-1.989,0-3.672,3.672-2.142,10.939
		C357.331,366.854,358.479,370.066,360.162,372.82z"/>
	<path fill="#13342B" d="M242.888,454.599c1.224,2.219,3.595,3.596,7.267,3.596c5.891,0,9.41-5.508,10.481-10.021
		c0.765-3.519,7.879-0.459,6.655,3.442c-2.678,8.568-9.256,15.3-18.666,15.3c-8.797,0-17.136-6.119-15.912-17.747
		c1.454-12.317,8.186-18.055,16.524-18.055c7.421,0.153,9.792,5.967,8.568,11.398C256.275,450.162,249.237,453.604,242.888,454.599z
		 M242.046,448.249c3.901-0.459,6.656-2.524,7.42-4.666c0.765-2.219-0.535-4.131-2.295-4.131
		C245.183,439.452,242.888,442.053,242.046,448.249z"/>
	<path fill="#13342B" d="M289.858,441.9c3.978-7.191,9.104-12.011,14.688-11.017c5.814,1.147,5.431,7.114,3.213,15.836
		c-2.219,8.645-0.459,11.016,1.606,11.016c2.448,0,5.354-4.514,6.502-9.563c0.766-3.519,7.88-0.459,6.656,3.442
		c-2.678,8.722-8.645,15.606-16.219,14.765c-6.961-0.688-10.021-5.584-8.185-16.218c0.841-5.126,1.836-10.634-0.459-10.634
		c-3.596,0-9.41,17.748-10.328,25.475c-0.153,0.994-0.612,1.53-1.224,1.836c-2.524,1.606-8.262,0.153-8.262-3.442
		c0-3.213,0.459-8.262,1.454-13.234c0.994-5.049,1.912-10.634-0.459-10.634c-3.672,0-8.185,12.623-9.715,20.272
		c0,0.077-0.077,0.153-0.077,0.153l-0.459,5.125c-0.382,3.902-9.563,2.755-9.563-1.683c0-4.514,0.612-10.634,2.295-20.426
		c1.071-6.35,2.83-12.01,7.65-12.928c4.437-0.995,5.737,1.606,4.972,3.365c-0.765,1.684-1.377,3.901-1.759,5.967
		c3.749-5.737,8.338-9.563,13.541-8.567C290.012,431.726,290.317,437.004,289.858,441.9z"/>
	<path fill="#13342B" d="M327.114,415.737c3.213,0.076,5.967,2.371,5.049,4.131c-1.224,2.142-3.061,8.797-4.514,15.605
		c3.213-3.519,7.038-5.431,10.786-4.59c5.738,1.377,6.962,9.563,4.743,18.284c-2.677,10.633-10.327,17.595-17.441,17.059
		c-7.574-0.535-10.939-8.797-9.181-23.485C318.393,427.136,320.918,415.66,327.114,415.737z M325.278,450.162
		c-0.459,5.049,0,7.727,1.836,7.727c2.524,0,5.432-3.596,6.809-9.257c1.147-5.049,0.535-9.18-1.913-9.18
		c-2.754,0-5.354,4.055-6.655,10.404C325.278,450.086,325.278,450.162,325.278,450.162z"/>
	<path fill="#13342B" d="M361.156,416.119c3.213,0.459,5.737,2.907,4.514,4.514c-1.912,2.754-7.88,13.388-9.792,21.956
		c-2.295,10.48-0.842,14.993,1.147,14.993c2.448,0,5.355-4.513,6.426-9.563c0.766-3.442,7.88-0.382,6.656,3.52
		c-2.678,8.721-7.191,14.765-14.688,14.765c-6.962,0-11.934-9.257-9.333-24.403C348.84,426.37,354.884,415.508,361.156,416.119z"/>
	<path fill="#13342B" d="M373.473,454.599c1.225,2.219,3.596,3.596,7.268,3.596c5.891,0,9.41-5.508,10.48-10.021
		c0.766-3.519,7.88-0.459,6.656,3.442c-2.678,8.568-9.257,15.3-18.666,15.3c-8.798,0-17.137-6.119-15.912-17.747
		c1.453-12.317,8.186-18.055,16.523-18.055c7.421,0.153,9.792,5.967,8.568,11.398C386.86,450.162,379.822,453.604,373.473,454.599z
		 M372.632,448.249c3.901-0.459,6.655-2.524,7.42-4.666c0.766-2.219-0.535-4.131-2.295-4.131
		C375.768,439.452,373.473,442.053,372.632,448.249z"/>
	<path fill="#13342B" d="M420.444,441.9c3.978-7.191,9.104-12.011,14.611-11.017c5.813,1.147,5.432,7.114,3.213,15.836
		c-2.219,8.645-0.459,11.016,1.606,11.016c2.448,0,5.354-4.514,6.502-9.563c0.766-3.519,7.88-0.459,6.656,3.442
		c-2.678,8.722-8.645,15.606-16.219,14.765c-6.961-0.688-10.021-5.584-8.185-16.218c0.841-5.126,1.836-10.634-0.459-10.634
		c-3.596,0-9.41,17.748-10.328,25.475c-0.153,0.994-0.612,1.53-1.224,1.836c-2.524,1.606-8.262,0.153-8.262-3.442
		c0-3.213,0.459-8.262,1.453-13.234c0.994-5.049,1.912-10.634-0.459-10.634c-3.672,0-8.186,12.623-9.716,20.272
		c0,0.077-0.076,0.153-0.076,0.153l-0.459,5.125c-0.383,3.902-9.563,2.755-9.563-1.683c0-4.514,0.612-10.634,2.295-20.426
		c1.071-6.35,2.83-12.01,7.65-12.928c4.437-0.995,5.737,1.606,4.972,3.365c-0.765,1.684-1.377,3.901-1.759,5.967
		c3.748-5.737,8.338-9.563,13.54-8.567C420.674,431.726,420.979,437.004,420.444,441.9z"/>
</g>
</svg>
