<?xml version="1.0" encoding="utf-8"?>
<!-- Generator: Adobe Illustrator 16.0.0, SVG Export Plug-In . SVG Version: 6.00 Build 0)  -->
<!DOCTYPE svg PUBLIC "-//W3C//DTD SVG 1.1//EN" "http://www.w3.org/Graphics/SVG/1.1/DTD/svg11.dtd">
<svg version="1.1" id="Layer_1" xmlns="http://www.w3.org/2000/svg" xmlns:xlink="http://www.w3.org/1999/xlink" x="0px" y="0px"
	 width="374px" height="187px" viewBox="118.5 319.5 374 187" enable-background="new 118.5 319.5 374 187" xml:space="preserve">
<g>
	<path fill="#13342B" d="M177.633,353.313c-1.224,13.005-12.469,20.196-21.955,19.966c-1.53,0-2.601-1.606-3.137-3.289
		c-3.519,12.928-8.492,23.715-13.541,23.485c-3.213-0.153-7.497-2.907-6.043-4.284c9.027-8.645,12.852-28.305,14.535-48.348
		c-9.104,3.442-12.47,12.24-8.415,17.059c1.453,1.683-0.229,2.754-3.596,2.066c-6.655-1.377-11.705-7.421-7.114-14.918
		c4.513-7.42,13.693-14.076,27.004-14.076C169.601,330.898,178.857,340.461,177.633,353.313z M157.208,339.466
		c-0.153,7.65-1.454,17.442-3.672,26.546c6.426,0.459,14-5.279,14.917-13.617C169.065,346.352,165.699,340.231,157.208,339.466z"/>
	<path fill="#13342B" d="M204.791,385.367c-3.137,0-6.043-1.377-7.956-4.667c-2.448,2.83-5.584,4.667-9.104,4.667
		c-5.661,0-13.234-5.508-10.939-18.666c1.759-10.48,7.574-16.601,15.683-16.601c2.448,0.077,5.125,1.147,7.191,2.831
		c1.606-1.989,3.519-2.754,5.737-2.524c3.213,0.459,4.284,2.907,3.29,4.59c-1.683,2.907-4.208,9.563-4.743,13.617
		c-0.536,4.896,0.459,8.109,2.448,8.109c2.448,0,5.355-4.514,6.502-9.563c0.765-3.519,7.803-0.459,6.656,3.442
		C216.877,379.323,212.364,385.367,204.791,385.367z M196.375,359.739c-0.918-0.765-2.295-1.377-3.749-1.377
		c-2.601,0-5.355,2.372-6.579,8.186c-1.224,5.967,0.153,10.098,2.907,10.098c3.519,0,5.432-5.278,6.273-11.705
		c0-0.153,0.077-0.229,0.077-0.382C195.61,362.799,195.917,361.192,196.375,359.739z"/>
	<path fill="#13342B" d="M236.002,358.974c-0.765,4.743-9.715,8.338-8.797,4.972c0.382-1.377,2.983-5.508-0.077-5.508
		c-2.065,0-4.59,2.907-5.355,9.639c-0.536,4.972,1.989,8.645,6.732,8.645c4.437,0,8.186-4.131,9.41-9.563
		c0.765-3.519,7.803-0.459,6.655,3.442c-2.677,8.797-7.879,14.765-17.595,14.765c-7.42,0-15.606-5.584-14.306-17.213
		c1.377-12.699,7.879-18.054,15.912-18.054C233.478,350.1,236.844,353.925,236.002,358.974z"/>
	<path fill="#13342B" d="M252.833,334.724c3.213,0.076,6.043,2.372,5.049,4.131c-1.683,2.907-7.268,14.229-8.721,22.874
		c7.879-3.442,14.611-9.945,14.764-12.852c0.077-1.377,5.738-1.759,6.732,3.06c0.918,4.667-2.754,10.787-12.47,15.606
		c3.442,6.732,5.814,9.104,7.803,9.104c3.825,0,7.344-4.514,8.491-9.563c0.765-3.519,7.879-0.459,6.656,3.442
		c-2.678,8.721-8.262,15.606-16.295,14.765c-7.191-0.612-12.775-5.278-16.983-15.453c-0.994,6.273-1.453,10.098-1.836,14.229
		c-0.382,3.901-9.563,2.754-9.563-1.683c0-4.513,1.147-13.387,2.831-23.179C241.816,343.75,246.636,334.647,252.833,334.724z"/>
	<path fill="#13342B" d="M302.558,385.367c-3.137,0-6.043-1.377-7.956-4.667c-2.448,2.83-5.584,4.667-9.104,4.667
		c-5.661,0-13.234-5.508-10.939-18.666c1.759-10.48,7.573-16.601,15.683-16.601c2.448,0.077,5.125,1.147,7.191,2.831
		c1.606-1.989,3.519-2.754,5.737-2.524c3.213,0.459,4.284,2.907,3.29,4.59c-1.683,2.907-4.208,9.563-4.743,13.617
		c-0.535,4.896,0.459,8.109,2.448,8.109c2.448,0,5.354-4.514,6.502-9.563c0.766-3.519,7.804-0.459,6.656,3.442
		C314.568,379.323,310.055,385.367,302.558,385.367z M294.066,359.739c-0.918-0.765-2.295-1.377-3.749-1.377
		c-2.601,0-5.355,2.372-6.579,8.186c-1.224,5.967,0.153,10.098,2.907,10.098c3.519,0,5.432-5.278,6.273-11.705
		c0-0.153,0.077-0.229,0.077-0.382C293.301,362.799,293.607,361.192,294.066,359.739z"/>
	<path fill="#13342B" d="M323.595,385.137c-0.611,0.153-1.3,0.153-1.988,0.153c-5.585,0-12.776-5.432-10.94-18.666
		c1.684-12.011,8.722-19.048,15.76-16.601c1.377,0.536,2.754,1.989,3.824,3.749c0-4.59-0.765-4.819,1.607-5.891
		c4.207-1.836,9.026,1.989,7.955,12.011c-2.371,24.097-10.633,38.938-22.644,38.938c-4.743-0.076-8.568-3.289-9.333-7.038
		c-0.994-4.667,3.137-10.098,4.438-6.809c0.535,1.224,3.136,4.667,6.196,4.667C320.382,389.65,322.065,388.197,323.595,385.137z
		 M329.026,365.17L329.026,365.17l0.383-1.989c-0.229-2.219-1.684-4.514-3.366-4.82c-2.678-0.459-4.896,2.372-6.043,8.186
		c-1.225,5.967,0.152,10.098,2.906,10.098C326.272,376.646,327.726,371.443,329.026,365.17z"/>
	<path fill="#13342B" d="M352.206,376.646c2.448,0,5.354-4.514,6.503-9.563c0.765-3.519,7.803-0.459,6.655,3.442
		c-2.602,8.721-8.645,15.606-16.218,14.765c-6.732-0.688-10.022-9.104-7.956-19.584c1.988-10.098,4.742-16.065,9.715-15.912
		c3.213,0,6.044,2.372,5.049,4.055c-0.994,1.683-2.524,6.655-3.901,12.24C350.982,369.684,349.987,376.646,352.206,376.646z
		 M356.566,334.953c2.371,0.153,5.432,2.065,3.825,5.584c-0.918,2.065-3.901,5.049-7.573,5.049c-1.989,0-4.591-1.53-4.591-5.355
		C348.305,337.937,350.523,334.647,356.566,334.953z"/>
	<path fill="#13342B" d="M366.971,349.105c4.437-0.995,5.737,1.606,4.973,3.366c-0.766,1.683-1.301,3.825-1.684,5.814
		c3.825-5.508,8.568-9.257,13.464-8.338c5.814,1.147,5.509,7.114,3.29,15.835c-2.219,8.644-0.536,11.016,1.53,11.016
		c2.447,0,5.431-4.513,6.502-9.563c0.765-3.519,7.88-0.459,6.655,3.443c-2.677,8.721-8.721,15.606-16.218,14.764
		c-6.961-0.688-10.021-5.584-8.262-16.218c0.842-5.125,1.912-10.634-0.459-10.634c-2.754,0-7.88,10.939-9.181,17.213l-0.229,0.918
		c-0.383,2.677-0.536,4.743-0.766,7.42c-0.383,3.901-9.563,2.754-9.563-1.683c0-4.514,0.612-10.633,2.295-20.425
		C360.392,355.685,362.151,350.023,366.971,349.105z"/>
	<path fill="#13342B" d="M408.128,385.137c-0.612,0.153-1.301,0.153-1.989,0.153c-5.585,0-12.775-5.432-10.939-18.666
		c1.683-12.011,8.721-19.048,15.759-16.601c1.377,0.536,2.754,1.989,3.825,3.749c0-4.59-0.766-4.819,1.606-5.891
		c4.207-1.836,9.026,1.989,7.956,12.011c-2.372,24.097-10.634,38.938-22.645,38.938c-4.742-0.076-8.567-3.289-9.333-7.038
		c-0.994-4.667,3.137-10.098,4.438-6.809c0.535,1.224,3.137,4.667,6.196,4.667C404.914,389.65,406.598,388.197,408.128,385.137z
		 M413.559,365.17L413.559,365.17l0.383-1.989c-0.229-2.219-1.683-4.514-3.366-4.82c-2.677-0.459-4.896,2.372-6.043,8.186
		c-1.225,5.967,0.152,10.098,2.906,10.098C410.805,376.646,412.259,371.443,413.559,365.17z"/>
	<path fill="#13342B" d="M245.947,428.742c2.601-14.076,6.885-23.104,13.694-23.104c4.896,0.077,9.027,3.596,7.573,6.12
		c-2.524,4.284-7.114,21.038-8.721,34.119c-1.989,15.988-1.071,22.491,1.836,22.491c3.749,0,8.109-6.809,9.792-14.382
		c1.224-5.126,11.781-0.536,9.945,5.202c-3.978,13.157-10.71,22.185-22.108,22.185c-4.896,0-8.721-2.678-11.246-7.956
		c-3.749,4.896-8.645,7.956-14.382,7.956c-8.262,0-19.737-8.568-16.294-28.382C218.713,437.616,230.647,426.37,245.947,428.742z
		 M244.188,441.288c-7.344-0.994-12.087,3.748-14.306,12.011c-2.601,8.797,0.077,15.146,4.208,15.146
		c5.279,0,8.186-7.727,9.333-17.289c0.077-1.683,0.153-3.289,0.383-5.049C243.958,444.501,244.035,442.818,244.188,441.288z"/>
	<path fill="#13342B" d="M285.116,464.009c1.836,3.289,5.431,5.432,10.863,5.432c8.874,0,14.152-8.263,15.759-15.071
		c1.225-5.201,11.781-0.611,10.021,5.126c-4.055,12.852-13.923,22.95-28.075,22.95c-13.158,0-25.781-9.181-23.868-26.622
		c2.219-18.514,12.24-27.158,24.786-27.158c11.169,0.153,14.765,9.027,12.929,17.06
		C305.159,457.353,294.602,462.555,285.116,464.009z M283.815,454.446c5.891-0.612,9.945-3.749,11.169-7.038
		c1.224-3.29-0.841-6.12-3.442-6.12C288.481,441.288,285.116,445.189,283.815,454.446z"/>
	<path fill="#13342B" d="M321.606,481.527c-10.251-1.913-16.677-14.383-10.328-26.775c3.29-6.426,13.388-4.514,11.781,0.535
		c-2.219,6.579-2.754,12.011,1.53,13.465c3.06,0.994,6.196-0.842,6.196-5.126c0-10.251-12.24-13.693-12.24-22.873
		c0-9.792,7.956-14.306,16.754-14.306c7.344,0.076,12.928,4.284,11.857,11.934c-1.225,8.721-12.47,10.404-11.017,5.202
		c0.612-2.371,0.536-5.355-2.142-5.355c-1.76,0-2.83,1.301-2.83,3.673c0,5.89,14.305,9.18,14.305,21.42
		C345.397,477.396,334.534,484.128,321.606,481.527z"/>
	<path fill="#13342B" d="M365.211,468.675c3.672,0,8.032-6.809,9.792-14.306c1.224-5.201,11.704-0.611,9.945,5.126
		c-3.979,13.158-13.005,23.409-24.327,22.185c-10.098-0.994-14.994-13.693-12.011-29.452c2.983-15.147,7.191-24.174,14.535-23.944
		c4.896,0,9.027,3.596,7.573,6.043c-1.453,2.602-3.748,10.021-5.891,18.36C363.451,458.271,361.998,468.675,365.211,468.675z
		 M371.866,406.021c3.596,0.153,8.186,3.137,5.814,8.415c-1.377,3.137-5.891,7.65-11.322,7.65c-2.983,0-6.885-2.296-6.885-8.109
		C359.396,410.535,362.763,405.563,371.866,406.021z"/>
	<path fill="#13342B" d="M394.511,481.45c-0.918,0.153-1.913,0.307-2.983,0.307c-8.415,0-19.278-8.186-16.524-28.076
		c2.601-17.978,13.082-28.61,23.639-24.938c2.142,0.842,4.131,2.907,5.813,5.584c0-6.885-1.07-7.268,2.372-8.797
		c6.35-2.754,13.54,2.906,12.011,18.054c-3.596,36.261-15.912,58.599-33.967,58.446c-7.19-0.077-12.928-4.973-13.999-10.558
		c-1.453-7.038,4.666-15.146,6.731-10.251c0.842,1.836,4.667,6.962,9.334,6.962C389.614,488.183,392.216,486.04,394.511,481.45z
		 M402.696,451.463v0.076l0.535-3.061c-0.383-3.289-2.524-6.808-5.049-7.267c-4.055-0.766-7.344,3.595-9.104,12.316
		c-1.836,9.026,0.153,15.146,4.36,15.146C398.565,468.675,400.707,460.796,402.696,451.463z"/>
	<path fill="#13342B" d="M433.066,427.212c6.732-1.453,8.645,2.372,7.497,5.049c-1.071,2.448-1.912,5.661-2.601,8.722
		c5.813-8.263,12.928-13.924,20.272-12.547c8.721,1.76,8.262,10.634,4.972,23.792c-3.289,13.005-0.841,16.524,2.295,16.524
		c3.673,0,8.109-6.809,9.793-14.306c1.224-5.202,11.78-0.612,10.021,5.125c-4.055,13.158-13.082,23.409-24.327,22.186
		c-10.48-0.995-14.994-8.339-12.47-24.327c1.301-7.727,2.83-15.988-0.612-15.988c-4.131,0-11.781,16.447-13.847,25.856l-0.382,1.377
		c-0.536,4.055-0.842,7.191-1.225,11.169c-0.535,5.891-14.382,4.131-14.382-2.601c0-6.809,0.918-15.988,3.442-30.677
		C423.121,437.157,425.723,428.665,433.066,427.212z"/>
</g>
</svg>
