<?xml version="1.0" encoding="utf-8"?>
<!-- Generator: Adobe Illustrator 16.0.0, SVG Export Plug-In . SVG Version: 6.00 Build 0)  -->
<!DOCTYPE svg PUBLIC "-//W3C//DTD SVG 1.1//EN" "http://www.w3.org/Graphics/SVG/1.1/DTD/svg11.dtd">
<svg version="1.1" id="Layer_1" xmlns="http://www.w3.org/2000/svg" xmlns:xlink="http://www.w3.org/1999/xlink" x="0px" y="0px"
	 width="376px" height="195px" viewBox="116.5 291.5 376 195" enable-background="new 116.5 291.5 376 195" xml:space="preserve">
<g>
	<path fill="#13342B" d="M165.47,308.484c3.825,0,6.043,1.836,5.431,4.055c-11.322,37.332-8.186,48.195-3.519,48.195
		c4.055,0,7.727-5.891,10.71-14.458c-0.153-4.819,0.077-9.563,0.459-13.464c1.377-12.47,4.437-19.584,10.098-17.978
		c4.59,1.3,6.043,7.65,3.978,18.666c-0.918,4.973-2.448,10.174-4.437,15.07c0.306,8.339,2.678,12.087,5.125,12.087
		c7.879,0,17.212-21.344,11.781-43.835c-1.454-6.273-3.29-7.42-2.754-8.721c1.148-3.137,9.792-3.825,12.317,0.918
		c9.409,18.207-0.765,63.112-23.256,63.112c-5.355,0-8.797-4.054-10.786-9.792c-4.514,5.891-10.098,9.792-16.524,9.792
		c-13.541,0-16.83-21.42-5.278-55.462c-15.988,6.961-22.72,20.196-17.06,24.174c1.76,1.3,0.459,2.754-2.983,2.907
		c-6.885,0.306-13.158-4.284-10.633-12.699c3.213-10.481,18.666-21.65,36.567-22.644h0.765V308.484z"/>
	<path fill="#13342B" d="M229.118,351.171c1.224,2.219,3.595,3.596,7.267,3.596c5.891,0,9.41-5.508,10.481-10.021
		c0.765-3.519,7.879-0.459,6.655,3.442c-2.677,8.568-9.256,15.3-18.666,15.3c-8.797,0-17.136-6.12-15.912-17.748
		c1.454-12.316,8.186-18.054,16.524-18.054c7.421,0.153,9.792,5.967,8.568,11.398C242.429,346.734,235.391,350.177,229.118,351.171z
		 M228.2,344.821c3.901-0.459,6.655-2.524,7.42-4.667c0.765-2.218-0.536-4.131-2.295-4.131
		C231.336,336.024,229.118,338.625,228.2,344.821z"/>
	<path fill="#13342B" d="M258.111,312.309c3.213,0.077,5.967,2.372,5.049,4.054c-1.224,2.142-3.06,8.798-4.514,15.606
		c3.213-3.519,7.038-5.432,10.787-4.59c5.737,1.377,6.961,9.563,4.743,18.284c-2.677,10.633-10.327,17.595-17.442,17.06
		c-7.573-0.536-10.939-8.798-9.18-23.486C249.39,323.784,251.915,312.309,258.111,312.309z M256.275,346.811
		c-0.459,5.049,0,7.727,1.836,7.727c2.524,0,5.432-3.596,6.809-9.257c1.147-5.049,0.536-9.18-1.913-9.18
		c-2.754,0-5.355,4.054-6.655,10.404C256.275,346.658,256.275,346.734,256.275,346.811z"/>
	<path fill="#13342B" d="M282.744,362.875c-6.809-1.3-11.093-9.563-6.885-17.825c2.219-4.284,8.874-2.983,7.879,0.383
		c-1.453,4.36-1.836,8.032,1.071,8.95c1.989,0.688,4.131-0.535,4.131-3.442c0-6.809-8.186-9.104-8.186-15.224
		c0-6.502,5.279-9.563,11.169-9.563c4.896,0.077,8.568,2.907,7.88,7.956c-0.765,5.814-8.262,6.885-7.344,3.519
		c0.459-1.606,0.382-3.519-1.377-3.519c-1.147,0-1.913,0.842-1.913,2.448c0,3.901,9.486,6.12,9.486,14.229
		C298.656,360.122,291.389,364.559,282.744,362.875z"/>
	<path fill="#13342B" d="M313.727,354.308c2.83,0,5.278-4.514,6.426-9.563c0.766-3.519,7.803-0.459,6.655,3.442
		c-2.601,8.721-8.186,15.376-16.142,14.765c-7.956-0.612-11.934-8.951-9.868-19.584c1.989-10.098,4.743-16.065,9.716-15.912
		c3.213,0,6.043,2.372,5.049,4.055c-0.994,1.683-2.524,6.655-3.901,12.24C310.666,347.346,309.901,354.308,313.727,354.308z
		 M316.251,312.615c2.371,0.153,4.819,1.989,3.213,5.508c-0.918,2.065-3.901,5.049-7.573,5.049c-1.989,0-3.825-2.295-3.825-5.737
		C308.065,315.063,310.207,312.309,316.251,312.615z"/>
	<path fill="#13342B" d="M335.605,331.281c-1.147,0-2.295,0-3.213-0.077c-0.765,2.601-1.453,5.431-1.912,8.032
		c-1.837,10.48-0.612,14.917,1.377,14.917c2.524,0,5.201-4.513,6.349-9.563c0.766-3.442,7.804-0.382,6.656,3.519
		c-2.602,8.721-7.115,14.765-14.688,14.765c-7.649,0-11.245-8.415-9.409-23.944c0.459-3.519,1.071-6.656,1.683-9.563
		c-1.683-0.918-2.295-2.066-3.137-3.29c-2.295-3.213-1.07-5.432,1.989-4.819c0.842,0.153,1.989,0.382,3.366,0.459
		c1.989-5.432,4.207-8.568,5.508-8.492c3.213,0.153,8.798,2.831,7.803,4.437c-0.535,0.841-1.377,2.448-2.218,4.437h3.289
		C343.408,322.024,339.201,331.281,335.605,331.281z"/>
	<path fill="#13342B" d="M348.151,351.171c1.224,2.219,3.596,3.596,7.268,3.596c5.891,0,9.409-5.508,10.48-10.021
		c0.765-3.519,7.88-0.459,6.655,3.442c-2.677,8.568-9.256,15.3-18.666,15.3c-8.797,0-17.136-6.12-15.912-17.748
		c1.454-12.316,8.186-18.054,16.524-18.054c7.421,0.153,9.792,5.967,8.568,11.398C361.463,346.734,354.425,350.177,348.151,351.171z
		 M347.233,344.821c3.901-0.459,6.655-2.524,7.421-4.667c0.765-2.218-0.536-4.131-2.295-4.131
		C350.37,336.024,348.151,338.625,347.233,344.821z"/>
	<path fill="#13342B" d="M244.8,406.404c2.601-14.076,6.885-23.104,13.694-23.104c4.896,0.077,9.027,3.596,7.573,6.12
		c-2.524,4.284-7.114,21.038-8.721,34.119c-1.989,15.988-1.071,22.491,1.836,22.491c3.749,0,8.109-6.809,9.792-14.382
		c1.224-5.126,11.781-0.536,9.945,5.201c-3.978,13.158-10.71,22.186-22.108,22.186c-4.896,0-8.721-2.678-11.246-7.956
		c-3.749,4.896-8.645,7.956-14.382,7.956c-8.262,0-19.737-8.568-16.294-28.382C217.489,415.201,229.5,404.032,244.8,406.404z
		 M243.041,418.873c-7.344-0.994-12.087,3.749-14.306,12.011c-2.601,8.798,0.077,15.147,4.208,15.147
		c5.279,0,8.186-7.727,9.333-17.289c0.077-1.684,0.153-3.29,0.383-5.049C242.734,422.087,242.811,420.48,243.041,418.873z"/>
	<path fill="#13342B" d="M283.892,441.671c1.836,3.289,5.432,5.431,10.863,5.431c8.874,0,14.153-8.262,15.759-15.07
		c1.224-5.202,11.781-0.611,10.021,5.126c-4.055,12.852-13.923,22.95-28.076,22.95c-13.158,0-25.78-9.181-23.868-26.622
		c2.219-18.514,12.24-27.158,24.786-27.158c11.169,0.153,14.764,9.027,12.928,17.06
		C304.011,434.938,293.377,440.217,283.892,441.671z M282.591,432.108c5.891-0.612,9.945-3.749,11.169-7.038
		c1.224-3.29-0.841-6.12-3.442-6.12C287.334,418.873,283.892,422.852,282.591,432.108z"/>
	<path fill="#13342B" d="M320.382,459.189c-10.251-1.913-16.677-14.383-10.327-26.775c3.289-6.426,13.388-4.514,11.781,0.535
		c-2.219,6.579-2.755,12.011,1.529,13.464c3.061,0.995,6.196-0.841,6.196-5.125c0-10.251-12.239-13.693-12.239-22.874
		c0-9.792,7.956-14.305,16.753-14.305c7.345,0.076,12.929,4.283,11.857,11.934c-1.224,8.721-12.469,10.404-11.016,5.202
		c0.612-2.372,0.535-5.355-2.142-5.355c-1.76,0-2.831,1.301-2.831,3.672c0,5.891,14.306,9.181,14.306,21.421
		C344.25,455.058,333.387,461.79,320.382,459.189z"/>
	<path fill="#13342B" d="M364.063,446.337c3.672,0,8.032-6.809,9.792-14.306c1.224-5.202,11.704-0.611,9.945,5.126
		c-3.979,13.158-13.005,23.409-24.327,22.185c-10.099-0.994-14.994-13.693-12.011-29.452c2.983-15.147,7.191-24.174,14.535-23.944
		c4.896,0,9.027,3.595,7.573,6.043c-1.453,2.602-3.748,10.021-5.891,18.36C362.304,435.856,360.851,446.337,364.063,446.337z
		 M370.719,383.607c3.596,0.153,8.186,3.137,5.814,8.415c-1.377,3.137-5.891,7.65-11.322,7.65c-2.983,0-6.885-2.295-6.885-8.109
		C358.249,388.121,361.539,383.148,370.719,383.607z"/>
	<path fill="#13342B" d="M393.363,459.112c-0.918,0.153-1.913,0.307-2.983,0.307c-8.415,0-19.278-8.186-16.524-28.076
		c2.601-17.978,13.082-28.61,23.639-24.938c2.142,0.841,4.131,2.906,5.813,5.584c0-6.885-1.07-7.268,2.372-8.797
		c6.35-2.755,13.54,2.906,12.011,18.054c-3.596,36.261-15.912,58.599-33.967,58.446c-7.19-0.077-12.928-4.973-13.999-10.558
		c-1.453-7.038,4.666-15.146,6.731-10.251c0.842,1.836,4.667,6.962,9.333,6.962C388.467,465.768,391.068,463.702,393.363,459.112z
		 M401.549,429.048v0.077l0.535-3.061c-0.383-3.289-2.524-6.809-5.049-7.268c-4.055-0.765-7.344,3.596-9.104,12.316
		c-1.836,9.027,0.153,15.147,4.36,15.147C397.418,446.337,399.483,438.457,401.549,429.048z"/>
	<path fill="#13342B" d="M431.843,404.874c6.731-1.453,8.645,2.371,7.497,5.049c-1.071,2.448-1.913,5.661-2.602,8.721
		c5.814-8.262,12.929-13.923,20.272-12.546c8.722,1.76,8.263,10.634,4.973,23.792c-3.289,13.005-0.842,16.523,2.295,16.523
		c3.672,0,8.109-6.808,9.792-14.305c1.225-5.202,11.781-0.612,10.021,5.125c-4.055,13.158-13.081,23.409-24.327,22.186
		c-10.48-0.995-14.994-8.339-12.469-24.327c1.3-7.727,2.83-15.988-0.612-15.988c-4.131,0-11.781,16.447-13.847,25.856l-0.383,1.377
		c-0.535,4.055-0.841,7.191-1.224,11.169c-0.535,5.891-14.382,4.131-14.382-2.601c0-6.809,0.918-15.988,3.442-30.677
		C421.897,414.742,424.575,406.327,431.843,404.874z"/>
</g>
</svg>
