<?xml version="1.0" encoding="utf-8"?>
<!-- Generator: Adobe Illustrator 16.0.0, SVG Export Plug-In . SVG Version: 6.00 Build 0)  -->
<!DOCTYPE svg PUBLIC "-//W3C//DTD SVG 1.1//EN" "http://www.w3.org/Graphics/SVG/1.1/DTD/svg11.dtd">
<svg version="1.1" id="Layer_1" xmlns="http://www.w3.org/2000/svg" xmlns:xlink="http://www.w3.org/1999/xlink" x="0px" y="0px"
	 width="311px" height="253.75px" viewBox="157.5 266.5 311 253.75" enable-background="new 157.5 266.5 311 253.75"
	 xml:space="preserve">
<g display="none">
	<g display="inline">
		<path fill="#FFFFFF" d="M322.854,500.948c0-3.316,0-6.634,0-9.98c0-0.986,0.09-1.046,1.076-1.046c2.391,0,4.751-0.03,7.142,0
			c6.097,0.09,10.938,5.08,10.878,11.206c-0.06,5.946-4.961,10.817-10.907,10.877c-2.361,0.03-4.722,0-7.082,0
			c-1.046,0-1.106-0.06-1.106-1.075C322.854,507.582,322.854,504.266,322.854,500.948z M326.948,508.15c1.225,0,2.36,0,3.496,0
			c6.275,0,8.695-6.545,6.186-10.997c-0.777-1.375-1.912-2.331-3.347-2.929c-2.063-0.807-4.184-0.448-6.306-0.538
			C326.948,498.588,326.948,503.31,326.948,508.15z"/>
		<path fill="#FFFFFF" d="M457.506,503.339c0-2.271,0-4.572,0-6.843c0-1.853,0-3.735,0-5.588c0-0.867,0.119-0.986,1.016-0.986
			c0.777,0,1.555,0,2.302,0c0.537,0,0.776,0.239,0.776,0.776c0,0.149,0,0.299,0,0.448c0,6.664,0,13.358-0.029,20.021
			c0,0.359-0.149,0.927-0.389,1.076c-0.479,0.269-0.986,0.09-1.435-0.418c-4.004-4.453-8.038-8.876-12.043-13.298
			c-0.179-0.18-0.328-0.359-0.657-0.688c0,0.418,0,0.688,0,0.926c0,4.034,0,8.039,0,12.073c0,1.105-0.09,1.165-1.195,1.165
			c-0.657,0-1.345-0.029-2.002,0c-0.598,0.03-0.867-0.239-0.867-0.837c0-0.119,0-0.238,0-0.358c0-6.664,0-13.357,0.03-20.021
			c0-0.358,0.119-0.926,0.389-1.075c0.478-0.27,0.986-0.12,1.435,0.358c3.974,4.273,7.979,8.517,11.953,12.76
			c0.179,0.209,0.328,0.418,0.478,0.628C457.356,503.429,457.446,503.369,457.506,503.339z"/>
		<path fill="#FFFFFF" d="M428.46,504.714c-0.807,0-1.494-0.03-2.182,0c-0.657,0.029-0.986-0.209-0.956-0.896
			c0.029-0.657,0.029-1.285,0-1.942c0-0.568,0.239-0.837,0.807-0.837c1.853,0,3.735,0,5.588,0c0.568,0,0.807,0.239,0.807,0.807
			c0,2.57,0,5.17-0.029,7.74c0,0.269-0.239,0.627-0.448,0.747c-4.034,2.031-8.188,2.809-12.461,0.836
			c-5.917-2.719-8.188-9.98-5.021-15.748c3.167-5.737,10.429-7.59,16.017-4.063c0.448,0.299,0.896,0.627,1.345,0.956
			c0.509,0.358,0.568,0.776,0.09,1.225c-0.538,0.538-1.046,1.046-1.523,1.614c-0.448,0.508-0.808,0.478-1.315,0.06
			c-1.793-1.464-3.825-1.942-6.066-1.464c-3.466,0.776-5.977,4.482-5.438,8.008c0.568,3.915,3.766,6.635,7.53,6.336
			c0.957-0.09,1.883-0.359,2.81-0.598c0.179-0.061,0.418-0.359,0.418-0.568C428.489,506.268,428.46,505.551,428.46,504.714z"/>
		<path fill="#FFFFFF" d="M355.994,493.687c0,1.764,0,3.437,0,5.141c0.299,0,0.567,0.029,0.807,0.029c2.182,0,4.363,0.03,6.544,0
			c0.688,0,1.017,0.239,0.986,0.956c-0.029,0.628,0,1.256,0,1.854c0,0.866-0.149,1.016-0.986,1.016c-2.151,0-4.303,0-6.484,0
			c-0.269,0-0.538,0-0.866,0c0,1.853,0,3.616,0,5.498c0.239,0,0.508,0.03,0.776,0.03c2.72,0,5.409,0,8.129,0
			c0.866,0,1.016,0.149,1.016,0.986c0,0.657,0,1.345,0,2.002c0,0.508-0.239,0.777-0.777,0.777c-4.153,0-8.337,0-12.49,0
			c-0.509,0-0.718-0.239-0.718-0.718c0-0.149,0-0.299,0-0.448c0-6.574,0-13.148,0-19.723c0-1.136,0.06-1.195,1.166-1.195
			c3.914,0,7.829,0,11.773,0c0.986,0,1.105,0.09,1.105,1.136c0,0.538,0,1.105,0,1.644c0,0.866-0.149,1.016-0.986,1.016
			c-2.689,0-5.349,0-8.038,0C356.592,493.687,356.322,493.687,355.994,493.687z"/>
		<path fill="#FFFFFF" d="M299.456,512.005c-1.554,0.419-2.271-0.418-2.749-1.763c-0.269-0.777-0.508-1.764-1.076-2.122
			c-0.598-0.389-1.584-0.119-2.391-0.149c-2.122,0-4.214,0-6.335,0c-0.478,0-0.717,0.149-0.896,0.568
			c-0.358,0.896-0.807,1.763-1.195,2.659c-0.239,0.567-0.598,0.866-1.255,0.837c-0.747-0.03-1.494,0-2.241,0
			c-0.867,0-1.016-0.299-0.627-1.136c1.554-3.347,3.078-6.724,4.632-10.07c1.583-3.437,3.167-6.903,4.751-10.34
			c0.209-0.418,0.329-0.866,0.957-0.866s0.747,0.508,0.926,0.896c3.078,6.724,6.126,13.447,9.204,20.171
			c0.508,1.136,0.388,1.345-0.837,1.345C300.053,512.005,299.754,512.005,299.456,512.005z M294.167,504.415
			c-1.076-2.361-2.092-4.603-3.167-6.993c-1.076,2.421-2.062,4.662-3.108,6.993C289.983,504.415,292.015,504.415,294.167,504.415z"
			/>
		<path fill="#FFFFFF" d="M195.882,507.971c-1.375,0-2.719,0.03-4.094,0c-0.448,0-0.658,0.12-0.837,0.538
			c-0.358,0.896-0.807,1.763-1.166,2.659c-0.239,0.598-0.627,0.896-1.315,0.867c-0.687-0.03-1.375,0-2.092,0
			c-0.986,0-1.165-0.27-0.747-1.166c1.823-3.974,3.646-7.919,5.469-11.893c1.315-2.869,2.63-5.708,3.944-8.577
			c0.18-0.388,0.329-0.747,0.867-0.776c0.538,0,0.717,0.328,0.896,0.747c3.108,6.843,6.246,13.656,9.354,20.499
			c0.418,0.927,0.269,1.166-0.717,1.166c-0.688,0-1.404-0.03-2.092,0c-0.688,0.06-1.046-0.239-1.315-0.837
			c-0.358-0.837-0.777-1.674-1.105-2.51c-0.209-0.509-0.478-0.718-1.046-0.688C198.571,508.001,197.227,507.971,195.882,507.971z
			 M195.882,497.422c-1.076,2.421-2.062,4.662-3.108,6.993c2.152,0,4.154,0,6.275,0
			C198.003,502.084,196.987,499.843,195.882,497.422z"/>
		<path fill="#FFFFFF" d="M381.902,512.424c-2.391-0.12-4.572-0.777-6.455-2.241c-0.776-0.598-0.776-0.747-0.299-1.614
			c0.239-0.418,0.509-0.866,0.747-1.285c0.448-0.776,0.718-0.807,1.494-0.388c1.046,0.567,2.092,1.195,3.198,1.554
			c0.717,0.239,1.644,0.269,2.391,0.06c1.882-0.538,2.42-2.63,1.046-4.004c-0.747-0.747-1.764-1.256-2.72-1.764
			c-1.076-0.598-2.271-1.046-3.317-1.703c-2.809-1.793-3.854-4.781-2.689-7.59c0.986-2.361,2.899-3.467,5.319-3.766
			c2.66-0.358,5.08,0.329,7.292,1.763c0.776,0.509,0.836,0.837,0.358,1.584c-0.329,0.508-0.657,0.986-0.986,1.494
			c-0.358,0.508-0.747,0.598-1.345,0.27c-1.046-0.538-2.122-1.076-3.257-1.465c-0.568-0.179-1.285-0.149-1.883,0
			c-1.883,0.508-2.391,2.57-0.956,3.885c0.687,0.628,1.554,1.046,2.391,1.494c1.345,0.718,2.778,1.315,4.094,2.122
			c1.494,0.896,2.51,2.241,2.868,4.004c0.628,3.168-1.255,6.156-4.542,7.112C383.726,512.185,382.829,512.274,381.902,512.424z"/>
		<path fill="#FFFFFF" d="M265.957,503.996c0.209-0.448,0.358-0.717,0.478-0.956c1.823-4.094,3.646-8.158,5.439-12.252
			c0.269-0.627,0.598-0.956,1.345-0.896c0.777,0.06,1.583,0,2.391,0.03c0.926,0,1.076,0.269,0.657,1.195
			c-2.301,5.021-4.632,10.07-6.933,15.091c-0.837,1.822-1.674,3.646-2.51,5.469c-0.179,0.388-0.389,0.776-0.867,0.627
			c-0.299-0.09-0.657-0.328-0.807-0.598c-3.198-6.902-6.335-13.806-9.503-20.709c-0.358-0.776-0.179-1.046,0.688-1.075
			c0.836,0,1.703,0.029,2.54-0.03c0.627-0.029,0.926,0.239,1.165,0.807c1.823,4.154,3.676,8.308,5.528,12.432
			C265.628,503.369,265.748,503.578,265.957,503.996z"/>
		<path fill="#FFFFFF" d="M242.888,493.687c0,0.389,0,0.688,0,0.986c0,5.35,0,10.729,0,16.077c0,1.195-0.06,1.255-1.285,1.255
			c-0.627,0-1.255,0-1.853,0c-0.867,0-0.986-0.119-0.986-0.986c0-4.034,0-8.098,0-12.132c0-1.674,0-3.377,0-5.17
			c-0.926,0-1.823,0-2.689,0c-0.657,0-1.285,0-1.942,0c-0.538,0-0.777-0.239-0.807-0.747c0-0.777,0-1.554,0-2.301
			c0-0.479,0.269-0.718,0.747-0.718c4.482,0,8.935,0,13.417,0c0.568,0,0.807,0.27,0.807,0.808c0,0.687,0,1.404,0,2.092
			c0,0.627-0.299,0.896-0.926,0.866C245.936,493.687,244.471,493.687,242.888,493.687z"/>
		<path fill="#FFFFFF" d="M170.9,493.687c-1.554,0-3.018-0.029-4.453,0c-0.688,0-1.016-0.238-0.956-0.956
			c0.03-0.627,0.03-1.255,0-1.853c-0.03-0.717,0.239-0.956,0.956-0.956c3.586,0.029,7.142,0,10.728,0c0.807,0,1.644,0,2.45,0
			c0.568,0,0.837,0.239,0.807,0.807c0,0.657-0.03,1.345,0,2.002c0.03,0.688-0.239,0.986-0.957,0.986c-1.315-0.03-2.629,0-3.944,0
			c-0.149,0-0.299,0.03-0.508,0.06c0,0.329,0,0.628,0,0.896c0,5.379,0,10.788,0,16.167c0,1.136-0.06,1.195-1.165,1.195
			c-0.658,0-1.285,0-1.942,0c-0.896,0-1.046-0.12-1.046-1.046c0-4.752,0-9.473,0-14.225C170.9,495.749,170.9,494.763,170.9,493.687z
			"/>
		<path fill="#FFFFFF" d="M216.77,493.687c-1.554,0-2.988-0.029-4.423,0c-0.687,0-1.016-0.238-0.986-0.956
			c0.03-0.657,0.03-1.345,0-2.002c0-0.567,0.239-0.807,0.807-0.807c4.453,0,8.875,0,13.328,0c0.568,0,0.837,0.209,0.837,0.776
			c0,0.718,0,1.435,0,2.152c0,0.598-0.299,0.836-0.867,0.836c-1.255-0.029-2.48,0-3.735,0c-0.239,0-0.478,0.03-0.807,0.03
			c0,0.329,0,0.628,0,0.927c0,5.408,0,10.817,0,16.226c0,1.046-0.09,1.136-1.166,1.136c-0.627,0-1.255,0-1.853,0
			c-1.016,0-1.105-0.09-1.105-1.105c0-4.333,0-8.636,0-12.969C216.77,496.556,216.77,495.181,216.77,493.687z"/>
		<path fill="#FFFFFF" d="M399.115,500.889c0-3.287,0-6.604,0-9.892c0-0.956,0.089-1.075,1.075-1.075c0.747,0,1.494,0,2.241,0
			c0.568,0,0.837,0.269,0.837,0.807c0,0.149,0,0.299,0,0.448c0,6.515,0,13.059,0,19.573c0,1.195-0.06,1.255-1.255,1.255
			c-0.628,0-1.255,0-1.853,0c-0.867,0-0.986-0.119-0.986-0.986C399.115,507.643,399.115,504.266,399.115,500.889z"/>
	</g>
	<path display="inline" fill="#FFFFFF" d="M398.009,397.703l-60.423-93.533l-18.796-29.225l-0.03,0.06l-0.029-0.03l-39.087,60.632
		v-0.03l-88.901,137.76l251.941,0.029l4.214-0.029l-47.753-73.9L398.009,397.703z M368.007,462.221l29.195-45.213l29.195,45.213
		H368.007z M386.863,412.436l-28.897,44.705l-29.016-44.675L386.863,412.436z M329.129,401.349l28.957-44.854l28.927,44.824
		L329.129,401.349z M347.985,462.19l-58.361-0.03l29.136-44.974L347.985,462.19z M290.042,351.863l57.793-0.09l-28.986,44.884
		L290.042,351.863z M289.594,340.717l29.166-45.153l9.652,14.912l19.394,30.151L289.594,340.717z M250.448,401.409l29.166-45.183
		l29.046,45.123L250.448,401.409z M269.543,462.16l-58.301-0.029l29.016-44.974L269.543,462.16z M308.54,412.495l-28.957,44.675
		l-29.046-44.645L308.54,412.495z"/>
</g>
<g>
	<g>
		<path d="M321.724,501.639c0-3.316,0-6.634,0-9.98c0-0.986,0.09-1.046,1.076-1.046c2.391,0,4.751-0.03,7.142,0
			c6.097,0.09,10.938,5.08,10.878,11.206c-0.06,5.946-4.961,10.817-10.907,10.877c-2.361,0.03-4.722,0-7.082,0
			c-1.046,0-1.106-0.06-1.106-1.075C321.724,508.272,321.724,504.956,321.724,501.639z M325.818,508.841c1.225,0,2.36,0,3.496,0
			c6.275,0,8.695-6.545,6.186-10.997c-0.777-1.375-1.912-2.331-3.347-2.929c-2.063-0.807-4.184-0.448-6.306-0.538
			C325.818,499.278,325.818,504,325.818,508.841z"/>
		<path d="M456.376,504.029c0-2.271,0-4.572,0-6.843c0-1.853,0-3.735,0-5.588c0-0.867,0.119-0.986,1.016-0.986
			c0.777,0,1.555,0,2.302,0c0.537,0,0.776,0.239,0.776,0.776c0,0.149,0,0.299,0,0.448c0,6.664,0,13.358-0.029,20.021
			c0,0.359-0.149,0.927-0.389,1.076c-0.479,0.269-0.986,0.09-1.435-0.418c-4.004-4.453-8.038-8.876-12.043-13.298
			c-0.179-0.18-0.328-0.359-0.657-0.688c0,0.418,0,0.688,0,0.926c0,4.034,0,8.039,0,12.073c0,1.105-0.09,1.165-1.195,1.165
			c-0.657,0-1.345-0.029-2.002,0c-0.598,0.03-0.867-0.239-0.867-0.837c0-0.119,0-0.238,0-0.358c0-6.664,0-13.357,0.03-20.021
			c0-0.358,0.119-0.926,0.389-1.075c0.478-0.27,0.986-0.12,1.435,0.358c3.974,4.273,7.979,8.517,11.953,12.76
			c0.179,0.209,0.328,0.418,0.478,0.628C456.227,504.119,456.316,504.06,456.376,504.029z"/>
		<path d="M427.33,505.404c-0.807,0-1.494-0.03-2.182,0c-0.657,0.029-0.986-0.209-0.956-0.896c0.029-0.657,0.029-1.285,0-1.942
			c0-0.568,0.239-0.837,0.807-0.837c1.853,0,3.735,0,5.588,0c0.568,0,0.807,0.239,0.807,0.807c0,2.57,0,5.17-0.029,7.74
			c0,0.269-0.239,0.627-0.448,0.747c-4.034,2.031-8.188,2.809-12.461,0.836c-5.917-2.719-8.188-9.98-5.021-15.748
			c3.167-5.737,10.429-7.59,16.017-4.063c0.448,0.299,0.896,0.627,1.345,0.956c0.509,0.358,0.568,0.776,0.09,1.225
			c-0.538,0.538-1.046,1.046-1.523,1.614c-0.448,0.508-0.808,0.478-1.315,0.06c-1.793-1.464-3.825-1.942-6.066-1.464
			c-3.466,0.776-5.977,4.482-5.438,8.008c0.568,3.915,3.766,6.635,7.53,6.336c0.957-0.09,1.883-0.359,2.81-0.598
			c0.179-0.061,0.418-0.359,0.418-0.568C427.359,506.958,427.33,506.241,427.33,505.404z"/>
		<path d="M354.864,494.377c0,1.764,0,3.437,0,5.141c0.299,0,0.567,0.029,0.807,0.029c2.182,0,4.363,0.03,6.544,0
			c0.688,0,1.017,0.239,0.986,0.956c-0.029,0.628,0,1.256,0,1.854c0,0.866-0.149,1.016-0.986,1.016c-2.151,0-4.303,0-6.484,0
			c-0.269,0-0.538,0-0.866,0c0,1.853,0,3.616,0,5.498c0.239,0,0.508,0.03,0.776,0.03c2.72,0,5.409,0,8.129,0
			c0.866,0,1.016,0.149,1.016,0.986c0,0.657,0,1.345,0,2.002c0,0.508-0.239,0.777-0.777,0.777c-4.153,0-8.337,0-12.49,0
			c-0.509,0-0.718-0.239-0.718-0.718c0-0.149,0-0.299,0-0.448c0-6.574,0-13.148,0-19.723c0-1.136,0.06-1.195,1.166-1.195
			c3.914,0,7.829,0,11.773,0c0.986,0,1.105,0.09,1.105,1.136c0,0.538,0,1.105,0,1.644c0,0.866-0.149,1.016-0.986,1.016
			c-2.689,0-5.349,0-8.038,0C355.462,494.377,355.192,494.377,354.864,494.377z"/>
		<path d="M298.326,512.695c-1.554,0.419-2.271-0.418-2.75-1.763c-0.269-0.777-0.508-1.764-1.076-2.122
			c-0.598-0.389-1.584-0.119-2.391-0.149c-2.122,0-4.214,0-6.335,0c-0.478,0-0.717,0.149-0.896,0.568
			c-0.358,0.896-0.807,1.763-1.195,2.659c-0.239,0.567-0.598,0.866-1.255,0.837c-0.747-0.03-1.494,0-2.241,0
			c-0.867,0-1.016-0.299-0.627-1.136c1.554-3.347,3.078-6.724,4.632-10.07c1.583-3.437,3.167-6.903,4.751-10.34
			c0.209-0.418,0.329-0.866,0.957-0.866s0.747,0.508,0.926,0.896c3.078,6.724,6.126,13.447,9.204,20.171
			c0.508,1.136,0.389,1.345-0.837,1.345C298.924,512.695,298.625,512.695,298.326,512.695z M293.037,505.105
			c-1.076-2.361-2.092-4.603-3.167-6.993c-1.076,2.421-2.062,4.662-3.108,6.993C288.853,505.105,290.885,505.105,293.037,505.105z"
			/>
		<path d="M194.752,508.661c-1.375,0-2.719,0.03-4.094,0c-0.448,0-0.658,0.12-0.837,0.538c-0.358,0.896-0.807,1.763-1.166,2.659
			c-0.239,0.598-0.627,0.896-1.315,0.867c-0.687-0.03-1.375,0-2.092,0c-0.986,0-1.165-0.27-0.747-1.166
			c1.823-3.974,3.646-7.919,5.469-11.893c1.315-2.869,2.63-5.708,3.944-8.577c0.18-0.388,0.329-0.747,0.867-0.776
			c0.538,0,0.717,0.328,0.896,0.747c3.108,6.843,6.246,13.656,9.354,20.499c0.418,0.927,0.269,1.166-0.717,1.166
			c-0.688,0-1.404-0.03-2.092,0c-0.688,0.06-1.046-0.239-1.315-0.837c-0.358-0.837-0.777-1.674-1.105-2.51
			c-0.209-0.509-0.478-0.718-1.046-0.688C197.441,508.691,196.097,508.661,194.752,508.661z M194.752,498.112
			c-1.076,2.421-2.062,4.662-3.108,6.993c2.152,0,4.154,0,6.275,0C196.874,502.774,195.857,500.533,194.752,498.112z"/>
		<path d="M380.772,513.114c-2.391-0.12-4.572-0.777-6.455-2.241c-0.776-0.598-0.776-0.747-0.299-1.614
			c0.239-0.418,0.509-0.866,0.747-1.285c0.448-0.776,0.718-0.807,1.494-0.388c1.046,0.567,2.092,1.195,3.198,1.554
			c0.717,0.239,1.644,0.269,2.391,0.06c1.882-0.538,2.42-2.63,1.046-4.004c-0.747-0.747-1.764-1.256-2.72-1.764
			c-1.076-0.598-2.271-1.046-3.317-1.703c-2.809-1.793-3.854-4.781-2.689-7.59c0.986-2.361,2.899-3.467,5.319-3.766
			c2.66-0.358,5.08,0.329,7.292,1.763c0.776,0.509,0.836,0.837,0.358,1.584c-0.329,0.508-0.657,0.986-0.986,1.494
			c-0.358,0.508-0.747,0.598-1.345,0.27c-1.046-0.538-2.122-1.076-3.257-1.465c-0.568-0.179-1.285-0.149-1.883,0
			c-1.883,0.508-2.391,2.57-0.956,3.885c0.687,0.628,1.554,1.046,2.391,1.494c1.345,0.718,2.778,1.315,4.094,2.122
			c1.494,0.896,2.51,2.241,2.868,4.004c0.628,3.168-1.255,6.156-4.542,7.112C382.596,512.875,381.699,512.965,380.772,513.114z"/>
		<path d="M264.827,504.687c0.209-0.448,0.358-0.717,0.478-0.956c1.823-4.094,3.646-8.158,5.439-12.252
			c0.269-0.627,0.598-0.956,1.345-0.896c0.777,0.06,1.583,0,2.391,0.03c0.926,0,1.076,0.269,0.657,1.195
			c-2.301,5.021-4.632,10.07-6.933,15.091c-0.837,1.822-1.674,3.646-2.51,5.469c-0.179,0.388-0.389,0.776-0.867,0.627
			c-0.299-0.09-0.657-0.328-0.807-0.598c-3.198-6.902-6.335-13.806-9.503-20.709c-0.358-0.776-0.179-1.046,0.688-1.075
			c0.836,0,1.703,0.029,2.54-0.03c0.627-0.029,0.926,0.239,1.165,0.807c1.823,4.154,3.676,8.308,5.528,12.432
			C264.499,504.06,264.618,504.269,264.827,504.687z"/>
		<path d="M241.758,494.377c0,0.389,0,0.688,0,0.986c0,5.35,0,10.729,0,16.077c0,1.195-0.06,1.255-1.285,1.255
			c-0.627,0-1.255,0-1.853,0c-0.867,0-0.986-0.119-0.986-0.986c0-4.034,0-8.098,0-12.132c0-1.674,0-3.377,0-5.17
			c-0.926,0-1.823,0-2.689,0c-0.657,0-1.285,0-1.942,0c-0.538,0-0.777-0.239-0.807-0.747c0-0.777,0-1.554,0-2.301
			c0-0.479,0.269-0.718,0.747-0.718c4.482,0,8.935,0,13.417,0c0.568,0,0.807,0.27,0.807,0.808c0,0.687,0,1.404,0,2.092
			c0,0.627-0.299,0.896-0.926,0.866C244.806,494.377,243.341,494.377,241.758,494.377z"/>
		<path d="M169.77,494.377c-1.554,0-3.018-0.029-4.453,0c-0.688,0-1.016-0.238-0.956-0.956c0.03-0.627,0.03-1.255,0-1.853
			c-0.03-0.717,0.239-0.956,0.956-0.956c3.586,0.029,7.142,0,10.728,0c0.807,0,1.644,0,2.45,0c0.568,0,0.837,0.239,0.807,0.807
			c0,0.657-0.03,1.345,0,2.002c0.03,0.688-0.239,0.986-0.957,0.986c-1.315-0.03-2.629,0-3.944,0c-0.149,0-0.299,0.03-0.508,0.06
			c0,0.329,0,0.628,0,0.896c0,5.379,0,10.788,0,16.167c0,1.136-0.06,1.195-1.165,1.195c-0.658,0-1.285,0-1.942,0
			c-0.896,0-1.046-0.12-1.046-1.046c0-4.752,0-9.473,0-14.225C169.77,496.439,169.77,495.453,169.77,494.377z"/>
		<path d="M215.64,494.377c-1.554,0-2.988-0.029-4.423,0c-0.687,0-1.016-0.238-0.986-0.956c0.03-0.657,0.03-1.345,0-2.002
			c0-0.567,0.239-0.807,0.807-0.807c4.453,0,8.875,0,13.328,0c0.568,0,0.837,0.209,0.837,0.776c0,0.718,0,1.435,0,2.152
			c0,0.598-0.299,0.836-0.867,0.836c-1.255-0.029-2.48,0-3.735,0c-0.239,0-0.478,0.03-0.807,0.03c0,0.329,0,0.628,0,0.927
			c0,5.408,0,10.817,0,16.226c0,1.046-0.09,1.136-1.166,1.136c-0.627,0-1.255,0-1.853,0c-1.016,0-1.105-0.09-1.105-1.105
			c0-4.333,0-8.636,0-12.969C215.64,497.246,215.64,495.871,215.64,494.377z"/>
		<path d="M397.985,501.579c0-3.287,0-6.604,0-9.892c0-0.956,0.089-1.075,1.075-1.075c0.747,0,1.494,0,2.241,0
			c0.568,0,0.837,0.269,0.837,0.807c0,0.149,0,0.299,0,0.448c0,6.515,0,13.059,0,19.573c0,1.195-0.06,1.255-1.255,1.255
			c-0.628,0-1.255,0-1.853,0c-0.867,0-0.986-0.119-0.986-0.986C397.985,508.333,397.985,504.956,397.985,501.579z"/>
	</g>
	<path d="M396.879,398.394l-60.423-93.533l-18.796-29.225l-0.03,0.06l-0.029-0.03l-39.087,60.632v-0.03l-88.901,137.76
		l251.941,0.029l4.214-0.029l-47.753-73.9L396.879,398.394z M366.877,462.911l29.195-45.213l29.195,45.213H366.877z
		 M385.733,413.126l-28.897,44.705l-29.016-44.675L385.733,413.126z M327.999,402.039l28.957-44.854l28.927,44.824L327.999,402.039z
		 M346.855,462.881l-58.361-0.03l29.136-44.974L346.855,462.881z M288.913,352.554l57.793-0.09l-28.986,44.884L288.913,352.554z
		 M288.464,341.407l29.166-45.153l9.652,14.912l19.394,30.151L288.464,341.407z M249.318,402.1l29.166-45.183l29.046,45.123
		L249.318,402.1z M268.413,462.851l-58.301-0.029l29.016-44.974L268.413,462.851z M307.41,413.186l-28.957,44.675l-29.046-44.645
		L307.41,413.186z"/>
</g>
</svg>
